{"glyphs":{"0":{"ha":679,"x_min":40,"x_max":640,"o":"m 339 -33 q 528 54 444 -33 q 633 393 618 167 q 640 585 640 483 q 632 772 640 703 q 532 1033 611 913 q 367 1125 464 1125 l 322 1119 q 192 1046 244 1103 q 79 842 103 960 q 40 546 40 694 q 135 110 40 271 q 265 -21 178 22 q 339 -33 301 -33 m 361 76 q 336 93 343 76 q 303 153 322 125 q 271 215 285 182 q 226 510 226 346 l 226 563 q 314 903 238 739 q 401 978 340 967 q 422 968 414 978 q 506 768 490 878 q 518 532 518 686 q 488 250 517 388 q 422 114 468 175 q 383 85 403 96 l 361 76 z "},"1":{"ha":317,"x_min":68,"x_max":261,"o":"m 147 -50 q 197 -22 178 -50 q 217 47 217 7 q 247 758 244 736 l 253 857 q 261 1031 261 943 q 259 1074 261 1053 q 247 1114 257 1094 q 178 1157 224 1157 q 139 1149 158 1157 q 96 1043 96 1131 l 76 578 q 69 335 69 456 l 68 125 q 86 -6 68 46 q 147 -50 107 -47 z "},"2":{"ha":535,"x_min":18,"x_max":489,"o":"m 382 -40 q 417 -16 404 -33 q 429 21 429 1 q 382 78 429 67 q 285 84 363 82 q 203 88 208 86 q 197 97 197 89 q 268 386 214 254 q 429 722 343 557 q 489 919 489 832 l 486 961 q 356 1135 469 1088 q 269 1151 315 1151 q 119 1105 192 1151 q 25 965 47 1058 l 18 918 q 76 849 24 858 q 110 860 93 849 q 132 891 126 872 q 142 926 138 910 q 207 1031 158 989 q 244 1046 225 1046 q 285 1038 264 1046 l 290 1035 q 303 1021 301 1031 q 306 1001 306 1011 q 307 983 306 992 l 307 965 q 251 769 292 868 l 203 663 q 107 443 151 556 q 33 53 42 261 q 111 -32 33 -21 q 196 -37 151 -37 q 256 -40 224 -37 l 382 -40 z "},"3":{"ha":514,"x_min":4,"x_max":490,"o":"m 178 -21 q 251 -10 215 -21 q 432 120 374 28 q 490 325 490 213 l 488 382 q 286 639 465 567 q 382 749 344 690 q 442 917 442 833 l 435 979 q 364 1088 418 1043 q 244 1133 310 1133 q 21 969 78 1118 q 4 910 4 942 q 19 875 7 889 q 47 857 31 861 l 64 853 q 106 873 88 853 q 128 913 124 893 l 129 918 q 204 1000 154 972 q 221 1004 208 1004 q 283 929 283 986 l 282 918 q 217 796 265 847 q 113 682 168 735 l 86 657 q 65 607 65 633 q 113 543 65 567 q 143 539 122 539 q 203 526 175 539 q 256 496 231 513 q 313 413 301 464 q 321 342 321 376 q 269 186 321 261 q 169 114 231 124 q 117 129 142 114 l 94 133 q 43 104 64 133 q 35 75 35 90 q 51 29 35 51 l 74 13 q 178 -21 122 -21 z "},"4":{"ha":608,"x_min":0,"x_max":550,"o":"m 432 -36 q 493 4 472 -36 q 501 56 501 29 l 501 169 q 519 696 501 432 q 538 906 525 800 q 543 953 539 929 q 550 1044 550 997 q 463 1140 539 1128 q 388 1113 415 1140 q 354 1053 361 1086 q 336 949 342 1000 q 324 875 326 885 q 285 765 318 817 q 242 742 265 742 l 228 744 q 185 783 196 750 q 167 888 172 835 l 158 1065 q 101 1131 150 1121 l 85 1133 q 24 1088 43 1133 q 14 1056 15 1071 q 10 1040 13 1047 q 0 940 0 990 q 19 783 0 860 q 42 717 28 747 q 89 661 57 688 q 226 613 154 613 q 319 631 272 613 l 332 635 q 340 622 340 635 l 340 618 q 361 94 340 261 q 381 4 363 46 q 432 -36 393 -36 z "},"5":{"ha":551,"x_min":10,"x_max":544,"o":"m 226 -44 q 365 -6 301 -44 q 470 106 428 32 q 527 256 513 181 q 544 401 542 332 q 518 606 544 525 q 482 672 503 642 q 422 724 461 703 l 357 749 q 251 771 304 771 q 179 758 215 771 l 168 756 q 151 840 151 756 q 175 1015 151 928 l 185 1026 l 196 1024 q 372 993 361 993 q 414 1005 396 993 q 436 1040 432 1017 l 438 1056 q 383 1115 438 1099 q 118 1146 256 1146 q 69 1128 92 1146 q 26 1046 29 1096 q 10 758 10 901 q 110 658 10 667 l 222 658 q 283 632 261 658 l 293 619 q 336 540 322 583 q 367 360 364 450 q 306 161 367 250 q 210 92 274 104 l 189 90 q 135 100 163 90 l 101 108 q 39 71 61 108 l 36 50 q 122 -25 36 -1 q 226 -44 176 -44 z "},"6":{"ha":694,"x_min":29,"x_max":674,"o":"m 371 -18 q 628 156 554 -15 q 674 372 674 264 q 628 588 674 479 q 567 665 610 639 q 428 707 499 707 q 231 653 331 707 q 306 922 246 797 q 344 965 318 947 q 388 986 367 986 q 436 949 415 986 q 444 936 436 944 q 489 906 463 906 l 506 910 q 549 957 549 918 l 551 978 q 522 1044 551 1015 q 453 1097 497 1078 q 360 1115 408 1115 q 236 1075 293 1115 q 53 779 110 969 q 29 546 29 664 l 31 447 q 110 147 40 288 q 360 -18 197 -18 l 371 -18 m 406 115 q 318 161 354 115 q 236 388 254 264 q 231 426 231 407 q 225 458 225 444 q 301 549 225 515 q 424 583 369 583 l 463 579 q 514 539 501 572 q 549 361 549 458 q 488 156 549 258 q 406 115 453 115 z "},"7":{"ha":525,"x_min":54,"x_max":486,"o":"m 172 -19 l 219 -12 q 276 53 271 0 l 351 378 q 460 863 408 618 l 467 897 q 486 1021 486 975 l 485 1040 q 469 1110 483 1085 q 408 1136 454 1136 l 399 1136 q 207 1128 304 1128 l 174 1124 q 111 1115 142 1122 q 54 1049 54 1090 l 54 1040 q 119 992 65 992 l 144 994 q 242 1001 194 1001 q 258 1003 254 1001 q 264 1006 261 1006 q 293 1004 285 1006 q 301 996 301 1003 l 224 674 q 119 235 168 454 l 114 201 q 101 89 101 144 l 103 65 q 172 -19 103 -17 z "},"8":{"ha":651,"x_min":53,"x_max":671,"o":"m 331 -31 q 510 14 424 -31 q 538 39 526 24 l 549 53 q 658 271 633 146 q 671 371 671 321 q 610 575 671 476 q 457 728 547 664 q 449 743 449 736 l 453 758 q 506 949 501 843 q 439 1097 506 1036 q 285 1158 372 1158 q 222 1150 254 1158 q 132 1101 169 1133 q 78 951 78 1054 q 153 763 78 847 q 169 733 169 747 l 161 714 q 79 549 106 632 q 53 397 53 465 q 100 126 53 240 q 275 -26 149 4 l 331 -31 m 325 97 l 296 100 q 218 175 242 108 q 178 343 178 257 l 179 361 q 261 640 179 513 q 271 651 264 651 l 283 644 q 449 371 442 486 l 453 308 q 432 179 453 242 q 325 97 400 97 m 338 811 l 332 814 q 278 883 304 836 q 253 963 253 929 l 253 969 q 265 1003 253 989 q 304 1031 283 1022 l 314 1028 q 364 996 344 1021 q 383 940 383 971 l 383 932 q 338 811 367 844 z "},"9":{"ha":642,"x_min":0,"x_max":601,"o":"m 239 -35 l 265 -29 q 390 44 340 -8 q 539 306 494 158 q 601 722 594 521 q 521 1019 601 883 q 313 1140 436 1140 q 213 1119 263 1140 q 55 969 110 1072 q 0 763 0 865 q 8 689 0 724 q 93 558 31 603 q 228 513 156 513 l 256 515 q 413 593 344 528 l 413 563 q 304 197 390 374 q 208 83 272 131 q 178 32 178 61 q 186 1 178 17 q 239 -35 203 -35 m 235 638 l 213 640 q 144 678 167 650 q 121 763 121 707 q 213 972 124 888 q 317 1015 258 1015 l 347 1011 q 390 968 382 1006 q 401 908 394 938 q 413 850 408 879 q 372 739 413 811 q 304 663 349 696 q 235 638 263 638 z "},"\u0000":{"ha":0,"x_min":0,"x_max":0,"o":""}," ":{"ha":556,"x_min":0,"x_max":0,"o":""},"!":{"ha":329,"x_min":64,"x_max":283,"o":"m 182 143 q 249 160 233 144 q 265 225 265 176 l 263 499 l 269 883 q 275 953 271 918 q 282 1088 282 1018 l 283 1099 q 248 1157 283 1138 q 168 1176 213 1176 l 150 1176 q 87 1165 104 1175 q 69 1104 69 1154 q 64 878 69 993 q 99 221 64 551 q 122 160 104 176 q 182 143 139 143 m 174 -75 q 240 -18 240 -75 l 239 25 q 226 60 235 53 q 192 71 217 68 l 174 74 l 143 68 q 105 48 113 63 q 96 7 97 33 l 94 -12 q 113 -60 94 -46 q 174 -75 131 -74 z "},"\"":{"ha":351,"x_min":33,"x_max":299,"o":"m 111 1001 q 150 1036 144 1001 q 160 1168 157 1092 q 145 1210 160 1199 q 99 1224 131 1222 q 33 1171 39 1224 l 40 1119 q 50 1082 43 1103 l 64 1032 q 78 1010 67 1018 q 103 1001 89 1001 l 111 1001 m 219 1001 q 276 1042 260 1001 q 299 1176 290 1106 q 285 1203 299 1196 q 233 1218 260 1218 q 192 1205 211 1218 q 174 1168 174 1192 q 179 1103 179 1121 q 181 1050 179 1086 q 192 1017 183 1028 q 219 1001 201 1006 z "},"#":{"ha":846,"x_min":53,"x_max":811,"o":"m 615 -33 q 658 -24 639 -33 q 675 -10 675 -24 l 683 14 q 693 56 693 31 l 701 307 q 724 338 701 338 q 753 347 740 340 q 767 376 767 354 q 754 399 767 392 q 724 407 736 407 q 706 421 706 407 l 711 625 q 736 651 711 651 q 785 660 771 651 q 811 682 804 665 q 806 700 811 694 q 792 711 800 706 l 789 713 q 732 725 765 725 q 714 740 717 725 l 719 863 q 742 1108 724 956 q 737 1135 742 1121 q 719 1162 732 1150 q 681 1181 706 1174 q 632 1188 657 1188 q 557 1161 576 1188 q 517 911 522 1115 q 510 764 517 874 q 506 751 510 754 q 489 747 501 747 q 401 751 447 751 q 389 757 394 751 q 383 769 383 763 l 383 847 q 389 925 383 886 q 393 1092 393 1006 q 279 1165 393 1165 l 218 1161 q 179 1117 186 1156 q 171 915 171 1003 l 167 774 q 150 746 167 746 l 140 747 q 80 740 107 747 q 53 713 53 732 q 79 682 53 686 q 149 674 110 674 q 167 658 167 674 l 167 417 q 153 392 167 399 q 123 383 139 386 q 95 374 107 379 q 83 356 83 368 q 104 328 83 336 q 148 321 125 321 q 171 301 171 321 l 171 294 q 188 56 171 225 q 211 -3 194 14 q 267 -24 228 -21 q 293 -28 279 -28 q 375 50 375 -28 l 375 303 q 381 326 375 319 q 406 333 386 333 q 510 332 504 333 q 519 324 517 331 q 524 303 521 318 q 536 25 524 165 q 597 -32 542 -32 l 615 -33 m 493 407 l 390 407 q 379 422 379 407 l 383 664 q 389 676 383 674 q 401 678 394 678 l 493 674 q 515 651 515 674 l 515 538 l 519 538 l 519 429 q 515 412 519 417 q 493 407 510 407 z "},"$":{"ha":688,"x_min":28,"x_max":629,"o":"m 324 -71 l 340 -69 q 401 -6 401 -61 l 401 4 q 406 35 401 28 q 432 44 410 42 q 524 74 482 53 q 593 140 565 94 q 621 249 621 194 q 592 361 621 308 q 517 457 563 414 q 424 532 472 500 q 351 574 386 551 q 294 625 317 597 q 271 689 271 653 q 388 889 278 825 q 419 901 406 901 q 457 864 442 901 q 472 789 472 826 q 470 766 472 776 q 465 744 468 756 q 458 713 463 733 q 476 684 458 692 q 531 674 493 676 q 605 708 581 674 q 629 792 629 743 q 563 951 629 878 q 410 1024 496 1024 q 388 1030 393 1024 q 383 1046 383 1036 l 383 1101 q 340 1142 375 1135 l 307 1147 q 260 1137 276 1144 q 235 1101 244 1129 q 225 1043 225 1074 l 228 1008 q 206 975 228 985 q 76 857 125 931 q 28 714 28 783 q 201 467 28 571 q 363 332 292 408 q 397 280 386 304 q 410 222 408 256 q 336 132 410 150 q 279 179 308 132 q 239 213 264 201 q 186 224 214 224 q 138 215 163 224 q 113 190 113 206 q 226 61 138 94 q 246 42 246 57 l 244 -12 q 274 -55 251 -39 q 324 -71 296 -71 z "},"%":{"ha":672,"x_min":28,"x_max":629,"o":"m 100 -8 q 183 44 165 -8 l 622 1046 l 629 1071 q 608 1103 629 1086 q 560 1119 586 1119 q 465 1054 504 1119 q 157 350 310 692 l 35 75 l 28 46 q 78 -8 28 7 l 100 -8 m 483 63 q 541 79 525 63 q 558 129 557 96 q 538 176 558 165 q 471 192 517 188 q 456 190 461 190 q 447 189 450 189 q 442 187 444 189 q 434 182 439 185 q 422 175 429 179 q 406 118 406 147 l 410 97 q 457 68 419 75 l 461 67 q 483 63 478 67 m 147 968 l 163 971 q 192 981 178 972 q 217 1006 211 990 q 222 1042 222 1022 q 213 1067 222 1058 q 188 1081 204 1075 l 142 1088 l 96 1081 q 68 1046 68 1072 q 147 968 69 974 z "},"&":{"ha":781,"x_min":28,"x_max":753,"o":"m 201 -1 q 256 6 229 -1 q 488 110 382 38 l 508 114 q 526 106 517 114 l 604 31 q 675 3 639 3 q 726 18 700 3 q 753 58 753 29 q 726 132 750 100 l 661 214 q 656 229 656 222 q 665 244 656 238 q 697 275 686 260 q 715 315 707 290 q 692 344 715 332 l 643 351 q 622 349 631 351 q 603 341 614 346 q 574 332 592 336 q 547 344 560 332 l 417 489 l 407 510 q 417 532 407 519 q 631 840 576 688 q 642 900 642 872 q 603 998 642 958 q 509 1057 565 1038 q 400 1076 453 1076 q 212 1037 297 1076 q 78 919 126 997 q 46 792 46 856 q 178 475 46 656 q 188 456 188 465 q 178 436 188 446 l 121 363 q 56 255 85 308 q 28 150 28 201 q 55 60 28 93 q 122 13 82 28 q 201 -1 163 -1 m 335 613 l 321 635 q 282 707 299 669 q 265 789 265 744 q 278 874 267 835 q 321 950 290 914 q 421 993 363 993 q 479 961 457 989 q 501 896 501 933 q 496 858 501 878 q 343 624 451 724 q 340 617 342 621 q 335 613 338 614 m 261 113 q 226 140 239 113 q 213 192 213 167 q 265 344 222 278 l 275 353 q 282 344 279 353 q 408 218 349 285 l 415 207 l 408 197 q 286 118 351 144 q 261 113 272 113 z "},"'":{"ha":192,"x_min":28,"x_max":163,"o":"m 121 992 q 163 1040 163 992 l 163 1146 q 94 1218 163 1211 q 60 1210 76 1214 q 36 1195 44 1207 q 28 1167 28 1183 q 58 1032 28 1107 q 110 993 71 993 l 121 992 z "},"(":{"ha":389,"x_min":44,"x_max":361,"o":"m 260 -62 l 274 -61 q 329 -11 329 -53 l 321 21 q 235 544 235 192 l 243 726 q 273 931 251 831 q 343 1122 294 1031 q 361 1185 356 1149 q 340 1210 361 1203 q 300 1217 318 1217 q 217 1165 247 1217 q 94 871 142 1021 q 46 560 46 721 l 44 463 q 82 217 44 340 q 178 -10 119 93 q 260 -62 206 -62 z "},")":{"ha":397,"x_min":28,"x_max":349,"o":"m 113 -86 q 200 -33 167 -86 q 279 154 246 58 q 349 481 349 313 q 341 639 349 567 q 314 803 333 711 q 188 1133 283 982 q 89 1188 150 1188 q 28 1150 28 1186 q 36 1122 32 1135 q 47 1094 40 1108 q 65 1051 57 1075 q 161 594 143 829 l 164 497 q 118 168 164 331 q 53 -24 94 68 l 44 -46 q 67 -74 44 -62 q 113 -86 89 -86 z "},"*":{"ha":321,"x_min":28,"x_max":293,"o":"m 108 996 q 149 1006 132 996 q 179 1015 167 1015 q 208 1006 197 1010 q 228 1000 218 1003 q 256 997 238 997 q 293 1028 293 1007 q 281 1054 293 1039 q 253 1114 253 1086 q 267 1154 253 1129 l 281 1175 l 288 1203 q 250 1228 288 1225 q 233 1231 240 1228 q 225 1250 225 1233 l 225 1253 q 219 1263 225 1258 q 207 1267 213 1267 q 168 1276 193 1276 q 122 1268 140 1276 q 103 1243 103 1260 l 107 1224 q 99 1215 107 1217 l 54 1211 q 28 1185 28 1203 q 38 1158 28 1174 l 76 1119 q 88 1104 88 1113 q 72 1079 88 1094 q 50 1044 57 1064 l 44 1025 q 67 1004 44 1013 q 108 996 89 996 z "},"+":{"ha":525,"x_min":28,"x_max":497,"o":"m 272 215 q 339 268 339 215 l 338 276 l 338 285 q 328 378 329 329 q 324 424 326 401 q 328 444 324 438 q 350 450 333 450 q 439 453 425 450 q 479 467 461 456 q 497 489 497 478 q 478 513 497 501 q 446 525 460 525 l 342 525 q 324 538 324 525 l 324 615 q 329 682 329 640 q 276 733 329 733 l 228 729 q 189 681 196 718 l 183 583 l 185 542 q 158 511 185 515 q 63 499 107 511 q 28 469 28 490 q 37 446 28 450 q 58 439 46 442 l 67 438 q 106 432 86 432 l 171 439 q 185 419 185 439 q 197 281 185 349 q 272 215 200 215 z "},",":{"ha":229,"x_min":28,"x_max":201,"o":"m 75 -114 q 132 -76 107 -114 q 167 -10 149 -42 q 190 33 178 11 q 201 69 201 54 q 190 92 201 86 q 158 101 179 97 l 140 106 q 63 54 75 106 l 56 29 q 28 -72 39 -21 q 33 -99 28 -89 q 58 -111 39 -108 l 75 -114 z "},"-":{"ha":643,"x_min":42,"x_max":594,"o":"m 121 410 l 317 414 l 425 414 q 472 417 449 417 l 483 417 q 594 483 594 417 q 533 540 588 525 q 99 532 307 540 q 42 469 44 521 q 86 414 42 431 q 121 410 107 410 z "},".":{"ha":263,"x_min":29,"x_max":194,"o":"m 118 -71 q 175 -47 158 -71 q 194 26 192 -24 q 119 86 194 86 l 107 86 q 29 -8 36 86 q 107 -69 29 -68 l 118 -71 z "},"/":{"ha":701,"x_min":28,"x_max":674,"o":"m 111 -12 q 211 49 168 -12 q 472 599 354 318 q 668 1019 565 813 l 674 1042 q 658 1069 674 1056 q 621 1092 642 1082 q 575 1103 600 1103 l 524 1103 q 463 1058 481 1097 l 32 53 l 28 35 q 36 18 28 25 q 111 -12 72 -12 z "},":":{"ha":218,"x_min":28,"x_max":190,"o":"m 107 542 l 142 547 q 165 553 156 549 q 190 636 190 564 q 172 699 188 682 q 117 715 156 715 q 52 694 71 715 q 33 624 33 672 q 107 542 40 542 m 110 194 q 183 264 183 194 l 183 269 q 166 335 183 317 q 104 353 149 353 q 45 333 61 353 q 28 268 29 314 q 110 194 28 196 z "},";":{"ha":240,"x_min":28,"x_max":213,"o":"m 89 108 q 131 136 113 108 q 200 293 175 208 q 206 308 206 301 q 185 332 206 322 q 144 342 164 342 q 94 326 117 342 q 61 279 71 310 q 28 149 38 221 q 78 110 28 110 l 89 108 m 124 569 q 178 581 150 569 q 203 603 197 589 q 211 636 210 618 l 213 646 q 206 683 213 667 l 200 706 q 129 749 176 749 l 125 747 q 67 735 83 746 q 51 681 51 725 l 47 658 q 49 636 49 649 q 51 611 49 624 q 65 589 54 599 q 124 569 93 569 z "},"<":{"ha":376,"x_min":28,"x_max":349,"o":"m 269 219 q 322 231 304 224 q 340 256 340 238 q 321 289 340 269 q 178 464 239 369 l 171 481 q 178 499 171 489 l 231 579 q 274 638 249 607 l 339 721 q 349 747 349 736 q 321 772 349 765 l 285 778 q 204 738 239 778 q 39 511 111 635 q 28 479 28 496 q 39 446 28 463 l 82 390 q 199 250 135 317 q 269 219 229 219 z "},"=":{"ha":489,"x_min":49,"x_max":461,"o":"m 124 335 q 397 339 260 335 q 440 349 418 339 q 461 375 461 358 q 438 401 461 389 q 389 413 415 413 l 258 413 l 258 408 l 114 411 q 75 400 94 411 q 57 392 65 397 q 49 374 49 388 q 57 356 49 361 q 75 347 65 351 q 108 338 93 340 l 124 335 z "},">":{"ha":419,"x_min":43,"x_max":350,"o":"m 132 218 q 206 253 182 218 q 256 325 229 288 q 350 476 350 460 q 340 500 350 488 q 183 735 275 624 q 110 769 156 769 q 43 738 44 769 q 49 715 43 724 q 67 693 54 706 l 79 678 q 192 504 139 594 q 203 478 203 492 q 192 453 203 465 q 122 351 154 406 q 65 256 89 301 q 85 231 65 243 q 132 218 104 218 z "},"?":{"ha":808,"x_min":28,"x_max":779,"o":"m 343 157 q 405 178 378 157 q 432 238 432 199 q 558 533 443 411 q 690 699 633 615 q 772 882 747 783 l 779 946 q 735 1074 779 1021 q 622 1154 692 1126 q 471 1182 551 1182 q 79 1017 243 1171 q 44 974 56 993 q 28 925 33 956 q 51 892 28 901 q 101 882 74 882 q 179 929 150 893 q 336 1051 239 1007 q 393 1064 364 1064 l 436 1056 q 523 990 492 1036 q 554 889 554 943 q 525 793 554 838 q 461 708 496 749 q 267 254 267 478 l 267 219 q 297 168 267 181 q 343 157 319 157 m 378 -56 l 397 -54 q 440 7 440 -46 q 436 51 436 24 q 412 88 436 79 q 367 96 388 96 q 331 90 350 96 q 303 61 311 83 q 294 19 294 39 q 301 -19 294 0 q 330 -47 308 -37 q 378 -56 351 -56 z "},"@":{"ha":1013,"x_min":28,"x_max":985,"o":"m 501 -1 q 710 35 606 -1 q 897 192 836 78 q 907 221 907 208 q 885 247 907 236 q 840 257 863 257 q 785 238 810 257 q 739 195 761 219 q 693 153 717 171 q 528 89 618 89 q 306 225 379 89 q 243 483 243 338 q 265 675 243 581 q 471 958 296 865 q 597 990 533 990 q 738 949 674 990 q 832 832 803 907 q 843 749 843 790 q 788 475 842 600 q 771 457 781 457 q 761 471 764 457 l 758 479 q 742 567 744 504 q 740 728 740 606 q 723 775 740 765 q 671 786 706 785 q 610 744 621 786 q 596 729 606 729 q 583 733 586 732 q 522 743 579 735 q 440 722 478 743 q 383 663 403 700 q 358 546 358 604 q 388 422 358 483 q 437 367 403 383 q 507 350 471 350 q 628 401 576 350 q 644 414 636 414 q 657 401 651 414 q 682 381 668 388 q 765 361 721 361 q 865 392 819 361 q 932 479 910 424 q 985 742 983 606 q 924 926 985 849 q 770 1047 864 1004 q 578 1089 676 1089 q 277 994 406 1089 q 74 736 149 900 q 28 519 28 629 q 102 222 28 357 q 340 26 176 88 q 501 -1 419 -1 m 514 461 q 501 544 501 503 q 522 644 501 594 q 546 565 546 611 q 514 461 546 511 z "},"A":{"ha":639,"x_min":13,"x_max":592,"o":"m 104 -12 q 161 36 156 -12 q 165 140 161 89 l 174 328 q 196 350 174 350 q 286 344 240 344 l 378 344 q 400 328 397 344 l 422 214 q 458 155 432 176 q 518 133 485 133 q 565 145 539 133 q 592 185 592 157 q 553 512 572 382 q 496 824 533 642 l 488 868 q 447 1024 476 947 q 382 1105 425 1081 q 292 1129 339 1129 l 235 1125 q 161 1068 185 1115 q 117 901 133 985 l 104 846 q 13 144 29 499 l 13 75 q 104 -12 13 -10 m 204 463 q 189 468 189 463 l 190 476 q 261 919 219 697 q 265 922 264 921 q 265 924 265 922 q 274 907 272 915 q 278 893 276 899 q 361 524 332 713 l 365 508 q 372 482 372 494 q 372 476 372 479 q 369 470 371 474 q 336 467 367 467 q 204 463 258 467 z "},"B":{"ha":603,"x_min":54,"x_max":571,"o":"m 171 -42 q 222 -31 197 -42 l 235 -28 q 488 147 390 18 q 553 282 536 211 q 571 431 571 353 q 553 567 571 507 q 488 678 536 626 q 410 743 451 717 q 479 808 456 782 q 511 907 511 858 q 432 1044 511 989 q 249 1100 353 1100 q 153 1092 200 1100 q 81 1066 99 1086 q 61 992 63 1046 l 54 601 l 57 325 q 88 21 63 169 q 119 -25 96 -8 q 171 -42 143 -42 m 288 129 q 244 678 244 390 q 263 710 244 710 q 283 704 271 710 q 418 547 393 661 q 426 449 426 497 q 397 284 426 365 q 288 129 368 203 m 250 819 l 239 831 l 233 993 q 237 999 233 999 q 264 1000 240 1000 q 313 997 294 1000 q 344 978 331 994 q 367 929 367 953 q 353 892 367 911 q 261 822 319 838 l 250 819 z "},"C":{"ha":661,"x_min":4,"x_max":632,"o":"m 393 -7 l 418 -6 q 606 169 564 26 l 608 186 q 590 222 608 214 q 539 235 572 231 q 488 220 511 235 q 453 174 464 206 q 428 104 447 138 q 388 71 410 71 q 326 116 361 71 q 275 208 292 161 q 246 356 253 288 q 239 513 239 425 q 279 835 239 676 q 375 988 294 931 q 414 1004 399 1004 q 464 950 443 1004 q 485 850 485 896 l 478 776 q 553 692 478 706 q 592 713 576 692 q 632 826 632 767 q 594 983 632 921 q 497 1078 557 1046 q 367 1111 436 1111 q 162 1033 249 1111 q 39 831 75 956 q 4 588 4 697 q 96 190 4 371 q 322 4 169 44 q 393 -7 357 -7 z "},"D":{"ha":667,"x_min":38,"x_max":636,"o":"m 136 -10 q 204 14 172 -10 q 449 227 344 108 q 608 510 553 346 q 636 669 636 589 q 622 819 636 743 q 542 984 607 918 q 383 1083 476 1050 q 192 1115 289 1115 q 100 1071 138 1115 q 65 989 74 1040 q 42 762 46 875 q 39 528 39 649 l 38 450 q 69 40 38 250 q 121 -8 81 -8 l 136 -10 m 231 167 q 243 469 231 329 q 269 924 257 747 q 265 993 269 956 q 271 1008 265 1008 l 282 1006 q 478 789 443 960 q 489 669 489 726 q 300 226 489 433 q 231 167 275 196 z "},"E":{"ha":500,"x_min":40,"x_max":482,"o":"m 329 -6 q 403 21 368 -6 q 425 60 425 33 q 413 78 422 72 q 390 87 403 83 q 364 90 378 90 q 290 94 329 94 q 264 117 264 94 l 264 133 q 254 344 254 232 l 260 686 q 271 715 263 713 q 294 717 279 717 q 303 713 299 714 q 360 711 307 713 q 407 717 385 711 q 438 751 438 729 q 415 788 438 772 q 369 809 393 803 q 319 815 344 815 q 288 816 304 815 q 271 824 271 817 q 294 988 288 907 q 311 1004 294 1004 l 414 993 l 456 1000 q 482 1031 482 1013 q 463 1064 482 1047 q 290 1100 418 1100 q 186 1092 238 1100 q 103 1058 122 1082 q 76 982 83 1033 q 49 749 57 846 q 40 514 42 651 q 76 60 40 288 q 92 18 79 31 q 329 -6 115 -6 z "},"F":{"ha":547,"x_min":39,"x_max":490,"o":"m 154 -15 q 225 7 192 -15 q 247 46 247 15 l 243 90 l 242 188 q 261 635 242 413 q 267 652 261 650 q 365 660 272 654 q 392 671 382 664 q 404 697 403 678 q 399 715 404 708 q 378 739 394 722 q 314 757 346 757 l 296 756 q 272 765 272 756 l 296 951 q 300 985 296 978 q 317 993 304 993 q 388 986 361 990 l 443 978 q 474 985 464 978 q 490 1014 485 992 q 469 1047 490 1031 q 408 1082 442 1075 l 375 1086 q 167 1104 272 1099 q 88 1053 111 1104 q 65 939 65 1001 q 39 464 39 724 q 44 256 39 360 q 69 46 50 151 q 139 -14 78 -10 l 154 -15 z "},"G":{"ha":700,"x_min":14,"x_max":650,"o":"m 415 -12 q 523 27 479 -12 q 594 128 567 67 q 638 260 622 190 q 649 394 649 331 l 649 419 l 650 488 q 626 549 650 529 q 566 576 601 569 q 497 582 531 582 l 460 579 q 346 564 400 578 q 319 553 326 560 q 310 529 311 547 q 342 485 310 501 q 407 468 375 468 l 485 478 q 502 473 497 478 q 507 456 507 468 q 503 394 504 426 q 490 265 500 331 q 454 138 481 200 q 435 116 443 121 q 408 108 426 111 l 394 107 q 332 138 358 107 q 244 268 272 193 q 200 513 200 389 q 224 708 200 610 q 315 913 246 819 q 397 982 346 964 l 429 989 q 472 964 463 989 q 485 890 481 939 l 485 889 q 481 836 485 858 q 469 790 476 814 q 456 731 463 765 q 478 685 456 700 q 546 663 500 671 q 595 691 578 663 q 619 760 613 719 q 625 835 625 800 q 592 966 625 900 q 493 1076 558 1032 q 333 1119 428 1119 q 136 1031 214 1119 q 58 886 81 968 q 14 551 14 728 l 14 531 q 75 229 14 357 q 363 -6 181 29 q 415 -12 390 -12 z "},"H":{"ha":753,"x_min":54,"x_max":668,"o":"m 590 4 q 647 38 635 4 q 661 139 660 71 l 663 297 l 657 447 q 663 615 661 560 q 666 700 665 669 q 667 769 667 731 l 668 975 q 635 1055 665 1025 q 564 1085 606 1085 q 499 1067 533 1085 q 464 1010 464 1049 q 454 757 454 881 l 454 622 q 447 608 454 608 l 394 613 l 268 603 q 256 609 258 603 q 254 983 254 615 q 229 1063 254 1029 q 146 1097 204 1097 l 128 1097 q 77 1073 100 1097 q 54 1019 54 1049 l 61 828 l 57 650 l 67 365 q 103 74 68 217 q 120 47 110 53 q 147 39 131 40 l 164 36 q 235 63 203 36 q 272 131 268 89 q 269 301 272 232 q 254 465 265 369 q 268 483 254 478 q 438 508 353 503 q 460 488 460 508 q 467 336 460 410 l 472 257 q 494 74 476 165 q 529 17 503 24 q 590 4 565 4 z "},"I":{"ha":318,"x_min":46,"x_max":228,"o":"m 163 28 q 205 49 186 31 q 224 103 224 67 l 224 554 l 228 688 l 228 947 q 210 1021 228 986 q 194 1051 204 1038 q 163 1064 185 1064 q 116 1059 139 1064 q 79 1029 93 1054 q 63 964 63 997 q 58 886 58 925 q 46 546 46 715 l 53 207 q 63 89 53 147 q 94 44 69 61 q 151 28 119 28 l 163 28 z "},"J":{"ha":589,"x_min":-22,"x_max":481,"o":"m 240 3 l 285 7 q 450 150 413 29 q 475 319 472 235 l 475 651 l 481 986 q 444 1086 481 1043 q 351 1129 408 1129 q 294 1116 313 1126 q 275 1064 275 1106 q 294 586 294 804 l 293 446 q 254 189 293 315 q 251 181 253 186 q 247 172 250 176 q 236 168 243 168 q 201 189 213 168 q 163 319 175 254 q 128 363 154 347 q 69 378 101 378 q 8 360 39 378 q -22 311 -22 343 q -15 275 -19 285 q -7 250 -11 265 q 75 81 14 156 q 240 3 143 3 z "},"K":{"ha":688,"x_min":49,"x_max":650,"o":"m 179 -62 q 242 -46 208 -62 q 275 1 275 -29 l 253 214 l 253 301 q 269 283 264 296 q 414 158 342 224 q 507 114 453 114 q 569 127 547 118 q 590 160 590 136 q 581 188 590 175 q 553 218 571 201 q 425 332 490 279 q 346 403 360 385 q 357 419 346 410 q 649 946 583 626 l 650 965 q 588 1058 650 1031 l 553 1067 q 492 1019 513 1067 l 471 958 q 399 763 439 851 q 283 585 360 674 q 265 567 275 567 q 261 581 261 571 q 322 997 289 789 l 325 1025 q 291 1108 325 1082 q 193 1139 257 1135 q 100 1054 111 1139 q 96 1047 97 1051 q 49 458 49 749 l 51 289 q 92 1 51 144 q 106 -32 97 -18 q 135 -56 115 -46 l 179 -62 z "},"L":{"ha":449,"x_min":50,"x_max":454,"o":"m 224 -21 l 267 -18 q 411 39 339 4 q 440 58 426 44 q 454 90 454 72 q 425 127 454 114 q 368 140 396 140 q 334 135 349 140 q 306 124 319 131 q 275 113 292 118 q 263 130 265 113 q 257 165 260 147 q 250 235 250 200 l 247 322 q 251 455 247 389 q 254 588 254 521 q 267 771 258 681 q 281 1001 281 885 q 244 1101 281 1065 q 151 1138 207 1138 l 101 1132 q 78 1115 82 1125 q 72 1085 74 1104 l 64 911 q 54 674 54 793 l 50 551 l 53 446 q 58 277 53 357 q 89 90 64 197 q 181 -18 99 7 l 224 -21 z "},"M":{"ha":925,"x_min":72,"x_max":817,"o":"m 682 -43 l 689 -42 q 754 6 732 -42 q 781 106 774 56 q 814 447 814 274 q 817 771 815 503 q 807 968 817 869 q 706 1064 797 1049 q 656 1053 681 1064 q 624 1024 632 1042 q 593 958 606 992 q 546 806 564 886 q 467 524 535 756 q 354 911 397 714 q 321 1022 344 968 q 260 1113 297 1076 q 167 1150 222 1150 l 136 1146 q 102 1119 110 1138 q 94 1079 94 1101 l 93 1064 q 72 714 72 890 q 106 206 72 461 q 140 36 117 121 q 222 -17 154 -17 q 301 14 267 -17 q 322 50 322 29 l 313 92 q 272 346 281 204 l 267 401 q 249 763 249 588 q 252 775 251 768 q 258 785 253 782 q 371 419 301 596 l 375 411 q 424 332 390 365 q 463 315 443 315 q 510 354 492 315 q 610 674 567 511 l 632 750 q 640 781 632 763 q 646 697 646 743 l 649 535 l 647 424 q 632 103 643 185 q 624 18 624 58 q 682 -43 635 -43 z "},"N":{"ha":814,"x_min":43,"x_max":728,"o":"m 164 -51 q 201 -45 181 -51 q 221 -25 221 -39 q 225 19 225 -7 l 221 211 q 238 651 221 433 l 239 664 q 247 815 239 735 l 256 803 l 360 432 q 467 168 407 299 l 517 50 q 542 19 528 32 q 551 10 547 15 q 596 -8 574 -8 q 651 32 629 -8 q 665 71 665 46 q 699 386 693 228 l 708 519 q 728 972 724 735 q 719 1047 728 1007 q 678 1094 711 1086 l 629 1101 q 567 1078 590 1101 q 543 1003 543 1054 l 542 938 l 547 776 l 551 297 q 541 305 543 301 q 539 315 539 308 q 416 678 465 493 q 290 1046 367 863 l 285 1060 q 260 1109 275 1086 q 219 1147 246 1132 q 158 1163 192 1163 q 93 1132 118 1163 q 68 1060 68 1101 l 58 874 q 43 493 43 682 q 64 46 43 265 l 67 29 q 82 -19 69 4 q 116 -43 93 -35 q 164 -51 139 -51 z "},"O":{"ha":743,"x_min":25,"x_max":675,"o":"m 401 -36 q 453 -28 426 -36 q 632 164 597 15 q 675 468 675 317 q 600 975 675 796 q 532 1086 576 1035 q 346 1175 454 1175 q 201 1125 268 1175 q 96 986 133 1075 q 25 588 25 818 l 26 533 q 122 138 26 347 q 340 -28 192 3 q 401 -36 371 -36 m 407 101 q 310 150 351 101 q 257 276 267 207 q 217 581 217 446 q 229 765 218 678 q 283 939 240 851 q 396 1033 317 1017 q 453 990 435 1017 q 483 925 472 963 q 540 690 532 814 q 553 521 553 606 q 543 351 551 436 q 510 186 535 267 l 510 181 q 484 131 496 149 q 449 107 472 114 l 407 101 z "},"P":{"ha":724,"x_min":76,"x_max":686,"o":"m 208 -122 q 260 -98 235 -122 q 292 -39 285 -74 q 299 31 299 -4 l 285 263 q 285 272 285 268 q 299 279 286 275 q 590 424 463 279 q 682 610 665 500 l 686 696 q 599 1011 686 897 q 421 1111 532 1097 l 306 1118 q 213 1112 260 1118 q 132 1083 165 1106 q 93 1015 99 1061 l 88 908 q 76 563 76 753 q 93 206 76 379 q 110 36 100 99 q 164 -100 122 -44 q 208 -122 182 -122 m 297 457 q 276 496 276 457 l 276 685 l 281 740 q 286 869 283 796 q 289 993 289 942 q 294 1005 289 1003 q 307 1007 300 1007 q 456 915 407 996 q 497 729 497 824 q 461 578 497 647 q 297 457 414 489 z "},"Q":{"ha":725,"x_min":18,"x_max":668,"o":"m 500 -117 q 543 -99 524 -117 q 563 -56 563 -81 q 551 -13 557 -24 q 539 21 546 -3 q 546 33 539 29 q 625 176 606 92 q 668 529 668 321 q 629 860 668 699 q 525 1094 601 1011 q 340 1185 442 1185 q 102 1019 186 1185 q 18 571 18 854 q 93 194 18 376 q 407 -28 182 -28 q 425 -37 417 -28 q 446 -89 432 -62 q 500 -117 471 -117 m 368 111 q 285 185 314 135 q 236 349 251 267 l 233 360 q 210 590 210 504 q 222 775 211 688 q 388 1042 251 1008 q 443 999 425 1024 q 476 933 461 974 q 543 526 543 767 q 533 340 543 436 q 490 158 524 243 q 426 208 456 208 q 381 192 396 203 q 365 142 365 181 l 368 111 z "},"R":{"ha":722,"x_min":51,"x_max":663,"o":"m 206 -76 q 247 -60 228 -76 q 275 -19 265 -43 q 283 54 283 15 l 283 322 q 297 335 283 332 q 307 331 303 335 q 418 138 311 326 q 531 43 472 43 q 596 68 564 43 q 628 138 628 93 q 597 221 628 176 l 493 382 l 488 399 q 501 417 488 410 q 644 617 606 493 q 663 761 663 689 q 640 929 663 846 q 567 1074 618 1013 q 432 1161 515 1136 l 421 1163 q 344 1169 385 1169 q 263 1175 304 1175 q 138 1156 196 1175 q 71 1074 79 1136 l 69 1064 q 61 986 61 1028 l 58 886 q 51 693 51 786 l 51 547 q 75 176 51 353 l 83 121 q 126 -28 86 40 q 161 -64 143 -51 q 206 -76 179 -76 m 292 518 q 279 538 279 518 l 279 617 l 301 1000 l 300 1049 q 314 1056 300 1056 q 428 969 393 1039 q 471 790 471 882 q 433 633 471 708 q 306 521 396 557 l 292 518 z "},"S":{"ha":699,"x_min":31,"x_max":672,"o":"m 361 -22 q 533 17 467 -18 q 642 142 599 51 q 672 294 672 217 q 558 543 672 463 q 426 619 496 586 q 336 667 378 642 q 268 727 294 693 q 242 811 242 761 q 270 911 242 863 q 346 978 299 960 q 358 982 350 982 q 405 959 385 979 q 432 913 425 939 l 436 883 l 432 831 q 446 792 432 801 q 489 774 460 782 q 524 786 506 774 q 540 804 533 793 q 560 886 560 838 q 541 978 560 933 q 489 1053 522 1024 q 304 1115 403 1115 q 158 1070 226 1115 q 54 926 89 1025 q 31 796 31 858 q 150 547 31 657 q 299 456 215 489 q 428 382 369 426 q 476 263 476 325 q 431 158 476 203 q 325 113 385 113 q 228 160 275 113 q 203 213 210 181 l 197 229 q 173 268 190 254 q 135 282 156 282 q 93 263 107 279 q 79 219 79 246 q 173 40 89 101 q 361 -22 257 -22 z "},"T":{"ha":646,"x_min":-1,"x_max":632,"o":"m 319 -35 q 410 18 381 -32 q 429 93 428 54 l 432 113 q 428 204 432 158 q 424 296 424 250 q 410 688 410 485 l 406 967 q 411 1004 406 999 q 450 1010 417 1010 q 576 1006 511 1006 q 632 1063 624 1014 q 619 1103 632 1085 q 579 1128 607 1121 q 519 1136 551 1136 l 368 1140 q 124 1132 246 1140 q 32 1109 65 1132 q -1 1050 -1 1086 l 1 1028 q 28 995 8 1007 q 71 983 49 983 l 167 997 q 176 995 174 997 q 179 983 179 993 l 176 913 l 193 601 q 197 433 197 517 q 210 183 197 308 q 224 89 213 139 q 258 2 235 39 q 319 -35 281 -35 z "},"U":{"ha":700,"x_min":46,"x_max":633,"o":"m 344 -21 q 423 -9 400 -21 q 479 39 446 3 l 492 53 q 544 131 532 85 q 622 501 613 310 q 633 713 633 606 q 626 885 633 799 l 619 964 q 604 1085 617 1025 q 540 1146 592 1146 q 482 1085 482 1140 q 510 693 510 842 q 479 357 507 506 q 436 179 467 268 q 360 115 415 132 q 340 126 349 115 q 292 196 313 158 q 263 315 269 256 q 257 436 257 374 l 256 499 q 261 631 256 565 q 274 761 267 697 q 288 889 282 825 q 306 1076 306 978 q 271 1144 306 1117 q 201 1171 236 1171 q 79 1054 93 1158 q 49 725 49 889 l 46 643 q 65 397 46 553 q 144 110 79 246 q 344 -21 206 -21 z "},"V":{"ha":669,"x_min":28,"x_max":631,"o":"m 313 -35 l 372 -33 q 447 14 419 -26 q 490 118 476 64 q 511 225 503 172 l 521 276 q 579 704 560 529 q 629 1103 599 872 l 631 1111 q 614 1158 631 1138 q 574 1181 597 1178 q 527 1165 547 1181 q 503 1121 507 1150 l 453 694 q 407 346 436 521 q 386 228 393 286 l 382 228 q 325 538 350 382 q 265 968 268 935 q 246 1090 258 1029 q 207 1148 235 1133 q 136 1167 179 1163 q 58 1122 88 1167 q 28 1021 28 1076 q 54 799 35 904 l 146 263 q 221 28 167 144 q 313 -35 251 -35 z "},"W":{"ha":961,"x_min":32,"x_max":899,"o":"m 260 -44 q 333 -23 299 -44 q 379 44 367 -1 l 432 231 l 444 290 q 463 388 454 336 q 475 332 475 357 q 558 106 504 211 q 622 26 585 57 q 706 -6 660 -6 q 793 31 753 -6 q 892 346 875 119 q 899 553 896 418 q 892 718 899 635 q 876 889 885 801 q 842 1066 860 999 q 749 1139 824 1133 q 706 1122 724 1139 q 685 1076 688 1104 l 685 1024 l 711 840 q 738 460 738 653 l 732 314 q 697 200 728 254 q 647 314 663 261 q 619 440 632 367 q 546 660 596 626 q 475 675 521 675 q 428 659 446 675 q 397 610 410 643 q 354 453 365 532 q 299 215 301 225 q 285 206 296 206 q 276 211 278 206 q 267 301 267 260 l 264 403 q 308 919 264 650 q 324 1056 321 1001 q 275 1132 324 1110 q 201 1153 238 1153 q 125 1115 163 1153 q 75 1028 88 1078 q 38 788 44 911 q 32 532 32 664 q 106 96 32 296 q 163 -3 125 38 q 260 -44 201 -44 z "},"X":{"ha":769,"x_min":38,"x_max":688,"o":"m 596 -39 q 655 -12 628 -39 q 682 49 682 14 l 683 63 q 678 101 683 82 q 674 122 675 111 q 486 592 599 364 l 482 610 q 594 836 489 644 q 668 975 635 903 q 688 1032 688 1001 q 588 1121 683 1121 q 525 1085 546 1121 l 376 828 l 358 869 q 307 1001 328 933 q 289 1051 301 1029 l 281 1071 q 179 1149 244 1149 q 107 1132 147 1149 q 54 1054 54 1119 q 63 1019 54 1036 l 68 1001 q 229 579 144 783 l 233 549 q 158 382 193 465 q 88 222 114 278 q 58 153 71 188 q 38 69 44 118 q 60 10 38 39 q 115 -19 83 -19 q 142 -12 129 -19 l 181 22 q 235 109 218 81 q 261 153 253 138 q 279 189 269 168 l 342 314 l 451 104 q 517 4 475 50 l 526 -4 q 590 -39 553 -31 l 596 -39 z "},"Y":{"ha":633,"x_min":46,"x_max":588,"o":"m 313 -1 q 375 19 346 -1 q 431 185 431 60 l 414 574 q 428 635 414 606 l 450 682 l 542 931 q 571 1001 560 971 q 588 1071 582 1032 q 569 1112 588 1096 q 529 1128 551 1128 q 481 1104 504 1128 l 458 1074 q 365 854 413 975 l 338 782 q 267 999 303 892 q 128 1117 232 1106 q 70 1094 94 1117 q 46 1035 46 1071 q 76 939 51 983 l 219 617 q 238 574 238 592 q 228 386 228 478 l 222 183 l 224 99 q 285 3 228 15 l 313 -1 z "},"Z":{"ha":531,"x_min":-1,"x_max":461,"o":"m 71 0 l 340 14 q 383 31 367 14 q 400 71 400 49 q 376 122 390 108 q 324 135 361 135 q 219 131 271 135 q 200 132 206 131 q 194 142 194 133 l 197 161 q 312 537 264 389 q 446 919 360 685 q 461 999 461 958 l 454 1054 q 385 1106 436 1106 l 97 1101 q 59 1088 74 1101 q 44 1053 44 1074 q 100 1001 47 1001 q 149 1007 139 1007 q 186 1008 160 1007 l 267 1001 q 210 810 235 906 q 119 508 168 658 q 1 100 53 306 l -1 76 q 18 22 -1 44 q 71 0 38 0 z "},"[":{"ha":432,"x_min":28,"x_max":404,"o":"m 164 -136 l 283 -132 q 365 -114 322 -132 q 404 -79 404 -106 q 392 -57 404 -62 q 340 -46 381 -51 q 300 -53 319 -46 l 279 -57 q 253 -36 253 -57 q 221 440 221 197 l 222 731 q 235 1161 222 946 q 244 1179 235 1179 q 261 1174 254 1176 q 276 1169 268 1171 q 299 1168 285 1168 q 342 1175 319 1168 q 369 1200 365 1182 q 363 1219 369 1210 q 349 1231 356 1228 q 197 1272 274 1272 q 53 1188 74 1272 l 43 1135 q 29 719 29 929 l 28 539 q 43 104 28 321 q 52 1 43 57 q 88 -96 61 -56 q 164 -136 114 -136 z "},"\\":{"ha":740,"x_min":65,"x_max":713,"o":"m 625 -7 q 684 9 656 -7 q 713 42 713 25 q 703 72 713 53 l 293 1035 q 201 1110 263 1110 l 174 1110 q 135 1106 153 1110 q 92 1086 118 1103 q 65 1047 65 1069 q 75 1017 65 1035 q 181 800 135 911 q 528 60 335 419 q 625 -7 568 -7 z "},"]":{"ha":376,"x_min":36,"x_max":349,"o":"m 146 -150 q 250 -133 199 -150 q 298 -104 285 -122 q 311 -47 311 -86 l 336 536 q 343 693 342 628 l 349 964 l 342 1150 q 276 1219 338 1211 q 185 1229 231 1229 q 84 1223 88 1225 q 78 1219 81 1221 q 71 1215 75 1218 q 53 1208 61 1213 q 44 1190 44 1203 q 124 1153 60 1153 l 140 1154 q 164 1149 157 1154 q 171 1129 171 1144 q 167 885 167 1003 q 172 611 172 747 q 154 -47 172 281 q 142 -74 154 -69 q 115 -78 131 -78 l 108 -78 q 54 -90 81 -78 q 36 -117 36 -97 q 51 -135 36 -126 q 75 -143 65 -143 l 146 -150 z "},"^":{"ha":310,"x_min":28,"x_max":282,"o":"m 239 1008 q 271 1024 260 1015 q 282 1056 282 1032 q 275 1078 282 1067 l 253 1113 q 208 1181 232 1150 q 157 1213 183 1213 q 106 1186 118 1213 l 36 1074 l 28 1049 q 37 1022 28 1029 q 64 1010 46 1015 q 125 1068 92 1010 q 147 1093 142 1093 q 156 1083 151 1089 q 166 1072 161 1078 q 175 1051 171 1065 l 183 1043 q 208 1019 194 1031 q 239 1008 221 1008 z "},"_":{"ha":617,"x_min":63,"x_max":589,"o":"m 322 -74 l 515 -72 q 567 -60 540 -72 q 589 -33 589 -53 q 583 -19 589 -24 q 571 -11 578 -14 q 539 0 556 -1 q 321 1 522 1 q 108 1 124 1 q 78 -8 93 0 q 63 -33 63 -15 q 79 -54 63 -47 q 322 -74 117 -74 z "},"`":{"ha":254,"x_min":39,"x_max":226,"o":"m 192 1029 q 215 1040 204 1029 q 226 1064 226 1050 l 218 1092 l 167 1182 q 92 1217 144 1217 q 55 1199 71 1217 q 39 1158 39 1182 q 56 1115 46 1128 q 88 1092 67 1101 q 140 1058 115 1076 l 161 1043 q 192 1029 175 1029 z "},"a":{"ha":646,"x_min":19,"x_max":599,"o":"m 111 -12 q 168 36 163 -12 q 172 140 168 89 l 181 328 q 203 350 181 350 q 293 344 247 344 l 385 344 q 407 328 404 344 l 429 214 q 465 155 439 176 q 525 133 492 133 q 572 145 546 133 q 599 185 599 157 q 560 512 579 382 q 503 824 540 642 l 494 868 q 454 1024 483 947 q 389 1105 432 1081 q 299 1129 346 1129 l 242 1125 q 168 1068 192 1115 q 124 901 140 985 l 111 846 q 19 144 36 499 l 19 75 q 111 -12 19 -10 m 211 463 q 196 468 196 463 l 197 476 q 268 919 226 697 q 272 922 271 921 q 272 924 272 922 q 281 907 279 915 q 285 893 283 899 q 368 524 339 713 l 372 508 q 379 482 379 494 q 378 476 379 479 q 376 470 378 474 q 343 467 374 467 q 211 463 265 467 z "},"b":{"ha":608,"x_min":60,"x_max":576,"o":"m 176 -42 q 228 -31 203 -42 l 240 -28 q 493 147 396 18 q 559 282 542 211 q 576 431 576 353 q 559 567 576 507 q 493 678 542 626 q 415 743 457 717 q 485 808 461 782 q 517 907 517 858 q 438 1044 517 989 q 254 1100 358 1100 q 158 1092 206 1100 q 86 1066 104 1086 q 67 992 68 1046 l 60 601 l 63 325 q 93 21 68 169 q 125 -25 101 -8 q 176 -42 149 -42 m 293 129 q 250 678 250 390 q 268 710 250 710 q 289 704 276 710 q 424 547 399 661 q 432 449 432 497 q 403 284 432 365 q 293 129 374 203 m 256 819 l 244 831 l 239 993 q 242 999 239 999 q 269 1000 246 1000 q 318 997 300 1000 q 350 978 336 994 q 372 929 372 953 q 358 892 372 911 q 267 822 325 838 l 256 819 z "},"c":{"ha":668,"x_min":11,"x_max":639,"o":"m 400 -7 l 425 -6 q 613 169 571 26 l 615 186 q 597 222 615 214 q 546 235 579 231 q 494 220 518 235 q 460 174 471 206 q 435 104 454 138 q 394 71 417 71 q 333 116 368 71 q 282 208 299 161 q 253 356 260 288 q 246 513 246 425 q 286 835 246 676 q 382 988 301 931 q 421 1004 406 1004 q 471 950 450 1004 q 492 850 492 896 l 485 776 q 560 692 485 706 q 599 713 583 692 q 639 826 639 767 q 601 983 639 921 q 503 1078 564 1046 q 374 1111 443 1111 q 169 1033 256 1111 q 46 831 82 956 q 11 588 11 697 q 103 190 11 371 q 329 4 176 44 q 400 -7 364 -7 z "},"d":{"ha":674,"x_min":44,"x_max":643,"o":"m 143 -10 q 211 14 179 -10 q 456 227 351 108 q 615 510 560 346 q 643 669 643 589 q 629 819 643 743 q 549 984 614 918 q 390 1083 483 1050 q 199 1115 296 1115 q 107 1071 144 1115 q 72 989 81 1040 q 49 762 53 875 q 46 528 46 649 l 44 450 q 76 40 44 250 q 128 -8 88 -8 l 143 -10 m 238 167 q 250 469 238 329 q 276 924 264 747 q 272 993 276 956 q 278 1008 272 1008 l 289 1006 q 485 789 450 960 q 496 669 496 726 q 307 226 496 433 q 238 167 282 196 z "},"e":{"ha":508,"x_min":49,"x_max":490,"o":"m 338 -6 q 411 21 376 -6 q 433 60 433 33 q 421 78 431 72 q 399 87 411 83 q 372 90 386 90 q 299 94 338 94 q 272 117 272 94 l 272 133 q 263 344 263 232 l 268 686 q 279 715 271 713 q 303 717 288 717 q 311 713 307 714 q 368 711 315 713 q 415 717 393 711 q 446 751 446 729 q 424 788 446 772 q 377 809 401 803 q 328 815 353 815 q 296 816 313 815 q 279 824 279 817 q 303 988 296 907 q 319 1004 303 1004 l 422 993 l 464 1000 q 490 1031 490 1013 q 471 1064 490 1047 q 299 1100 426 1100 q 194 1092 246 1100 q 111 1058 131 1082 q 85 982 92 1033 q 58 749 65 846 q 49 514 50 651 q 85 60 49 288 q 100 18 88 31 q 338 -6 124 -6 z "},"f":{"ha":553,"x_min":46,"x_max":497,"o":"m 161 -15 q 232 7 199 -15 q 254 46 254 15 l 250 90 l 249 188 q 268 635 249 413 q 274 652 268 650 q 372 660 279 654 q 399 671 389 664 q 411 697 410 678 q 406 715 411 708 q 385 739 401 722 q 321 757 353 757 l 303 756 q 279 765 279 756 l 303 951 q 307 985 303 978 q 324 993 311 993 q 394 986 368 990 l 450 978 q 481 985 471 978 q 497 1014 492 992 q 476 1047 497 1031 q 415 1082 449 1075 l 382 1086 q 174 1104 279 1099 q 95 1053 118 1104 q 72 939 72 1001 q 46 464 46 724 q 51 256 46 360 q 76 46 57 151 q 146 -14 85 -10 l 161 -15 z "},"g":{"ha":706,"x_min":19,"x_max":656,"o":"m 421 -12 q 528 27 485 -12 q 600 128 572 67 q 643 260 628 190 q 654 394 654 331 l 654 419 l 656 488 q 631 549 656 529 q 572 576 607 569 q 503 582 536 582 l 465 579 q 351 564 406 578 q 324 553 332 560 q 315 529 317 547 q 348 485 315 501 q 413 468 381 468 l 490 478 q 508 473 503 478 q 513 456 513 468 q 508 394 510 426 q 496 265 506 331 q 460 138 486 200 q 440 116 449 121 q 414 108 432 111 l 400 107 q 338 138 364 107 q 250 268 278 193 q 206 513 206 389 q 229 708 206 610 q 321 913 251 819 q 403 982 351 964 l 435 989 q 477 964 468 989 q 490 890 486 939 l 490 889 q 486 836 490 858 q 475 790 482 814 q 461 731 468 765 q 483 685 461 700 q 551 663 506 671 q 601 691 583 663 q 624 760 618 719 q 631 835 631 800 q 597 966 631 900 q 499 1076 564 1032 q 339 1119 433 1119 q 142 1031 219 1119 q 64 886 86 968 q 19 551 19 728 l 19 531 q 81 229 19 357 q 368 -6 186 29 q 421 -12 396 -12 z "},"h":{"ha":758,"x_min":60,"x_max":674,"o":"m 596 4 q 653 38 640 4 q 667 139 665 71 l 668 297 l 663 447 q 669 615 667 560 q 672 700 671 669 q 672 769 672 731 l 674 975 q 641 1055 671 1025 q 569 1085 611 1085 q 504 1067 539 1085 q 469 1010 469 1049 q 460 757 460 881 l 460 622 q 453 608 460 608 l 400 613 l 274 603 q 262 609 264 603 q 260 983 260 615 q 235 1063 260 1029 q 151 1097 210 1097 l 133 1097 q 83 1073 106 1097 q 60 1019 60 1049 l 67 828 l 63 650 l 72 365 q 108 74 74 217 q 126 47 115 53 q 153 39 136 40 l 169 36 q 241 63 208 36 q 278 131 274 89 q 274 301 278 232 q 260 465 271 369 q 274 483 260 478 q 443 508 358 503 q 465 488 465 508 q 472 336 465 410 l 478 257 q 500 74 482 165 q 535 17 508 24 q 596 4 571 4 z "},"i":{"ha":322,"x_min":51,"x_max":233,"o":"m 168 28 q 210 49 192 31 q 229 103 229 67 l 229 554 l 233 688 l 233 947 q 215 1021 233 986 q 200 1051 210 1038 q 168 1064 190 1064 q 122 1059 144 1064 q 85 1029 99 1054 q 68 964 68 997 q 64 886 64 925 q 51 546 51 715 l 58 207 q 68 89 58 147 q 100 44 75 61 q 157 28 125 28 l 168 28 z "},"j":{"ha":593,"x_min":-18,"x_max":485,"o":"m 244 3 l 289 7 q 454 150 417 29 q 479 319 476 235 l 479 651 l 485 986 q 449 1086 485 1043 q 356 1129 413 1129 q 298 1116 317 1126 q 279 1064 279 1106 q 299 586 299 804 l 297 446 q 258 189 297 315 q 256 181 257 186 q 251 172 254 176 q 240 168 247 168 q 206 189 217 168 q 167 319 179 254 q 132 363 158 347 q 74 378 106 378 q 13 360 43 378 q -18 311 -18 343 q -11 275 -15 285 q -3 250 -7 265 q 79 81 18 156 q 244 3 147 3 z "},"k":{"ha":693,"x_min":56,"x_max":657,"o":"m 186 -62 q 249 -46 215 -62 q 282 1 282 -29 l 260 214 l 260 301 q 276 283 271 296 q 421 158 349 224 q 514 114 460 114 q 576 127 554 118 q 597 160 597 136 q 588 188 597 175 q 560 218 578 201 q 432 332 497 279 q 353 403 367 385 q 364 419 353 410 q 656 946 590 626 l 657 965 q 594 1058 657 1031 l 560 1067 q 499 1019 519 1067 l 478 958 q 406 763 446 851 q 290 585 367 674 q 272 567 282 567 q 268 581 268 571 q 329 997 296 789 l 332 1025 q 298 1108 332 1082 q 200 1139 264 1135 q 107 1054 118 1139 q 103 1047 104 1051 q 56 458 56 749 l 58 289 q 99 1 58 144 q 113 -32 104 -18 q 142 -56 122 -46 l 186 -62 z "},"l":{"ha":454,"x_min":57,"x_max":461,"o":"m 231 -21 l 274 -18 q 418 39 346 4 q 447 58 433 44 q 461 90 461 72 q 432 127 461 114 q 375 140 403 140 q 341 135 356 140 q 313 124 326 131 q 282 113 299 118 q 269 130 272 113 q 264 165 267 147 q 257 235 257 200 l 254 322 q 258 455 254 389 q 261 588 261 521 q 274 771 265 681 q 288 1001 288 885 q 251 1101 288 1065 q 158 1138 214 1138 l 108 1132 q 85 1115 89 1125 q 79 1085 81 1104 l 71 911 q 61 674 61 793 l 57 551 l 60 446 q 65 277 60 357 q 96 90 71 197 q 188 -18 106 7 l 231 -21 z "},"m":{"ha":931,"x_min":78,"x_max":822,"o":"m 688 -43 l 694 -42 q 760 6 738 -42 q 786 106 779 56 q 819 447 819 274 q 822 771 821 503 q 813 968 822 869 q 711 1064 803 1049 q 662 1053 686 1064 q 629 1024 638 1042 q 599 958 611 992 q 551 806 569 886 q 472 524 540 756 q 360 911 403 714 q 326 1022 350 968 q 265 1113 303 1076 q 172 1150 228 1150 l 142 1146 q 108 1119 115 1138 q 100 1079 100 1101 l 99 1064 q 78 714 78 890 q 111 206 78 461 q 146 36 122 121 q 228 -17 160 -17 q 307 14 272 -17 q 328 50 328 29 l 318 92 q 278 346 286 204 l 272 401 q 254 763 254 588 q 258 775 257 768 q 264 785 258 782 q 376 419 307 596 l 381 411 q 429 332 396 365 q 468 315 449 315 q 515 354 497 315 q 615 674 572 511 l 638 750 q 646 781 638 763 q 651 697 651 743 l 654 535 l 653 424 q 638 103 649 185 q 629 18 629 58 q 688 -43 640 -43 z "},"n":{"ha":819,"x_min":50,"x_max":735,"o":"m 171 -51 q 208 -45 188 -51 q 228 -25 228 -39 q 232 19 232 -7 l 228 211 q 244 651 228 433 l 246 664 q 254 815 246 735 l 263 803 l 367 432 q 474 168 414 299 l 524 50 q 549 19 535 32 q 558 10 554 15 q 603 -8 581 -8 q 658 32 636 -8 q 672 71 672 46 q 706 386 700 228 l 715 519 q 735 972 731 735 q 726 1047 735 1007 q 685 1094 718 1086 l 636 1101 q 574 1078 597 1101 q 550 1003 550 1054 l 549 938 l 554 776 l 558 297 q 548 305 550 301 q 546 315 546 308 q 423 678 472 493 q 297 1046 374 863 l 292 1060 q 267 1109 282 1086 q 226 1147 253 1132 q 165 1163 199 1163 q 100 1132 125 1163 q 75 1060 75 1101 l 65 874 q 50 493 50 682 q 71 46 50 265 l 74 29 q 89 -19 76 4 q 123 -43 100 -35 q 171 -51 146 -51 z "},"o":{"ha":750,"x_min":32,"x_max":682,"o":"m 408 -36 q 460 -28 433 -36 q 639 164 604 15 q 682 468 682 317 q 607 975 682 796 q 539 1086 583 1035 q 353 1175 461 1175 q 208 1125 275 1175 q 103 986 140 1075 q 32 588 32 818 l 33 533 q 129 138 33 347 q 347 -28 199 3 q 408 -36 378 -36 m 414 101 q 317 150 358 101 q 264 276 274 207 q 224 581 224 446 q 236 765 225 678 q 290 939 247 851 q 403 1033 324 1017 q 460 990 442 1017 q 490 925 479 963 q 547 690 539 814 q 560 521 560 606 q 550 351 558 436 q 517 186 542 267 l 517 181 q 491 131 503 149 q 456 107 479 114 l 414 101 z "},"p":{"ha":729,"x_min":83,"x_max":693,"o":"m 215 -122 q 267 -98 242 -122 q 299 -39 292 -74 q 306 31 306 -4 l 292 263 q 292 272 292 268 q 306 279 293 275 q 597 424 469 279 q 689 610 672 500 l 693 696 q 606 1011 693 897 q 428 1111 539 1097 l 313 1118 q 219 1112 267 1118 q 139 1083 172 1106 q 100 1015 106 1061 l 94 908 q 83 563 83 753 q 100 206 83 379 q 117 36 107 99 q 171 -100 129 -44 q 215 -122 189 -122 m 304 457 q 283 496 283 457 l 283 685 l 288 740 q 293 869 290 796 q 296 993 296 942 q 301 1005 296 1003 q 314 1007 307 1007 q 463 915 414 996 q 504 729 504 824 q 468 578 504 647 q 304 457 421 489 z "},"q":{"ha":729,"x_min":24,"x_max":674,"o":"m 506 -117 q 549 -99 529 -117 q 568 -56 568 -81 q 557 -13 563 -24 q 544 21 551 -3 q 551 33 544 29 q 631 176 611 92 q 674 529 674 321 q 635 860 674 699 q 531 1094 607 1011 q 346 1185 447 1185 q 108 1019 192 1185 q 24 571 24 854 q 99 194 24 376 q 413 -28 188 -28 q 431 -37 422 -28 q 451 -89 438 -62 q 506 -117 476 -117 m 374 111 q 290 185 319 135 q 242 349 257 267 l 239 360 q 215 590 215 504 q 228 775 217 688 q 393 1042 257 1008 q 449 999 431 1024 q 482 933 467 974 q 549 526 549 767 q 539 340 549 436 q 496 158 529 243 q 432 208 461 208 q 386 192 401 203 q 371 142 371 181 l 374 111 z "},"r":{"ha":729,"x_min":58,"x_max":669,"o":"m 213 -76 q 253 -60 235 -76 q 282 -19 272 -43 q 290 54 290 15 l 290 322 q 304 335 290 332 q 314 331 310 335 q 425 138 318 326 q 538 43 479 43 q 603 68 571 43 q 635 138 635 93 q 604 221 635 176 l 500 382 l 494 399 q 508 417 494 410 q 651 617 613 493 q 669 761 669 689 q 647 929 669 846 q 574 1074 625 1013 q 439 1161 522 1136 l 428 1163 q 351 1169 392 1169 q 269 1175 311 1175 q 144 1156 203 1175 q 78 1074 86 1136 l 76 1064 q 68 986 68 1028 l 65 886 q 58 693 58 786 l 58 547 q 82 176 58 353 l 90 121 q 133 -28 93 40 q 168 -64 150 -51 q 213 -76 186 -76 m 299 518 q 286 538 286 518 l 286 617 l 308 1000 l 307 1049 q 321 1056 307 1056 q 435 969 400 1039 q 478 790 478 882 q 440 633 478 708 q 313 521 403 557 l 299 518 z "},"s":{"ha":704,"x_min":36,"x_max":678,"o":"m 367 -22 q 538 17 472 -18 q 647 142 604 51 q 678 294 678 217 q 564 543 678 463 q 432 619 501 586 q 342 667 383 642 q 274 727 300 693 q 247 811 247 761 q 276 911 247 863 q 351 978 304 960 q 364 982 356 982 q 410 959 390 979 q 438 913 431 939 l 442 883 l 438 831 q 451 792 438 801 q 494 774 465 782 q 529 786 511 774 q 546 804 539 793 q 565 886 565 838 q 547 978 565 933 q 494 1053 528 1024 q 310 1115 408 1115 q 163 1070 232 1115 q 60 926 94 1025 q 36 796 36 858 q 156 547 36 657 q 304 456 221 489 q 433 382 375 426 q 482 263 482 325 q 436 158 482 203 q 331 113 390 113 q 233 160 281 113 q 208 213 215 181 l 203 229 q 178 268 196 254 q 140 282 161 282 q 99 263 113 279 q 85 219 85 246 q 178 40 94 101 q 367 -22 263 -22 z "},"t":{"ha":649,"x_min":3,"x_max":636,"o":"m 324 -35 q 414 18 385 -32 q 433 93 432 54 l 436 113 q 432 204 436 158 q 428 296 428 250 q 414 688 414 485 l 410 967 q 415 1004 410 999 q 454 1010 421 1010 q 581 1006 515 1006 q 636 1063 628 1014 q 624 1103 636 1085 q 583 1128 611 1121 q 524 1136 556 1136 l 372 1140 q 128 1132 250 1140 q 36 1109 69 1132 q 3 1050 3 1086 l 6 1028 q 33 995 13 1007 q 75 983 53 983 l 171 997 q 181 995 178 997 q 183 983 183 993 l 181 913 l 197 601 q 201 433 201 517 q 214 183 201 308 q 228 89 217 139 q 262 2 239 39 q 324 -35 285 -35 z "},"u":{"ha":707,"x_min":53,"x_max":640,"o":"m 351 -21 q 430 -9 407 -21 q 486 39 453 3 l 499 53 q 551 131 539 85 q 629 501 619 310 q 640 713 640 606 q 633 885 640 799 l 626 964 q 611 1085 624 1025 q 547 1146 599 1146 q 489 1085 489 1140 q 517 693 517 842 q 486 357 514 506 q 443 179 474 268 q 367 115 422 132 q 347 126 356 115 q 299 196 319 158 q 270 315 276 256 q 264 436 264 374 l 263 499 q 268 631 263 565 q 281 761 274 697 q 294 889 289 825 q 313 1076 313 978 q 278 1144 313 1117 q 208 1171 243 1171 q 86 1054 100 1158 q 56 725 56 889 l 53 643 q 72 397 53 553 q 151 110 86 246 q 351 -21 213 -21 z "},"v":{"ha":675,"x_min":33,"x_max":636,"o":"m 318 -35 l 378 -33 q 453 14 425 -26 q 495 118 482 64 q 517 225 508 172 l 526 276 q 585 704 565 529 q 635 1103 604 872 l 636 1111 q 619 1158 636 1138 q 579 1181 603 1178 q 533 1165 553 1181 q 508 1121 513 1150 l 458 694 q 413 346 442 521 q 392 228 399 286 l 388 228 q 331 538 356 382 q 271 968 274 935 q 251 1090 264 1029 q 213 1148 240 1133 q 142 1167 185 1163 q 63 1122 93 1167 q 33 1021 33 1076 q 60 799 40 904 l 151 263 q 226 28 172 144 q 318 -35 257 -35 z "},"w":{"ha":965,"x_min":38,"x_max":904,"o":"m 265 -44 q 338 -23 304 -44 q 385 44 372 -1 l 438 231 l 450 290 q 468 388 460 336 q 481 332 481 357 q 564 106 510 211 q 628 26 590 57 q 711 -6 665 -6 q 799 31 758 -6 q 897 346 881 119 q 904 553 901 418 q 897 718 904 635 q 882 889 890 801 q 847 1066 865 999 q 754 1139 829 1133 q 711 1122 729 1139 q 690 1076 693 1104 l 690 1024 l 717 840 q 743 460 743 653 l 738 314 q 703 200 733 254 q 653 314 668 261 q 625 440 638 367 q 551 660 601 626 q 481 675 526 675 q 433 659 451 675 q 403 610 415 643 q 360 453 371 532 q 304 215 307 225 q 290 206 301 206 q 282 211 283 206 q 272 301 272 260 l 269 403 q 314 919 269 650 q 329 1056 326 1001 q 281 1132 329 1110 q 207 1153 243 1153 q 131 1115 168 1153 q 81 1028 93 1078 q 44 788 50 911 q 38 532 38 664 q 111 96 38 296 q 169 -3 131 38 q 265 -44 207 -44 z "},"x":{"ha":772,"x_min":42,"x_max":692,"o":"m 600 -39 q 659 -12 632 -39 q 686 49 686 14 l 688 63 q 682 101 688 82 q 678 122 679 111 q 490 592 603 364 l 486 610 q 599 836 493 644 q 672 975 639 903 q 692 1032 692 1001 q 592 1121 688 1121 q 529 1085 550 1121 l 381 828 l 363 869 q 311 1001 332 933 q 293 1051 306 1029 l 285 1071 q 183 1149 249 1149 q 111 1132 151 1149 q 58 1054 58 1119 q 67 1019 58 1036 l 72 1001 q 233 579 149 783 l 238 549 q 163 382 197 465 q 92 222 118 278 q 62 153 75 188 q 42 69 49 118 q 65 10 42 39 q 119 -19 88 -19 q 146 -12 133 -19 l 185 22 q 240 109 222 81 q 265 153 257 138 q 283 189 274 168 l 346 314 l 456 104 q 521 4 479 50 l 531 -4 q 594 -39 557 -31 l 600 -39 z "},"y":{"ha":638,"x_min":51,"x_max":593,"o":"m 318 -1 q 381 19 351 -1 q 436 185 436 60 l 419 574 q 433 635 419 606 l 456 682 l 547 931 q 576 1001 565 971 q 593 1071 588 1032 q 575 1112 593 1096 q 535 1128 557 1128 q 486 1104 510 1128 l 464 1074 q 371 854 418 975 l 343 782 q 273 999 308 892 q 133 1117 238 1106 q 76 1094 100 1117 q 51 1035 51 1071 q 82 939 57 983 l 225 617 q 243 574 243 592 q 233 386 233 478 l 228 183 l 229 99 q 290 3 233 15 l 318 -1 z "},"z":{"ha":536,"x_min":4,"x_max":467,"o":"m 76 0 l 346 14 q 389 31 372 14 q 406 71 406 49 q 381 122 396 108 q 329 135 367 135 q 225 131 276 135 q 206 132 211 131 q 200 142 200 133 l 203 161 q 317 537 269 389 q 451 919 365 685 q 467 999 467 958 l 460 1054 q 390 1106 442 1106 l 103 1101 q 65 1088 79 1101 q 50 1053 50 1074 q 106 1001 53 1001 q 155 1007 144 1007 q 192 1008 165 1007 l 272 1001 q 215 810 240 906 q 125 508 174 658 q 7 100 58 306 l 4 76 q 24 22 4 44 q 76 0 43 0 z "},"{":{"ha":486,"x_min":28,"x_max":458,"o":"m 285 -110 q 372 -92 329 -110 q 415 -54 415 -75 q 397 -31 415 -42 q 378 -22 388 -25 q 363 -14 369 -19 q 319 25 329 1 q 297 121 301 71 q 290 286 290 204 q 290 394 290 340 q 258 492 289 449 l 251 507 l 254 518 q 279 644 279 567 l 281 742 q 283 863 281 794 l 289 953 q 332 1126 290 1043 q 363 1149 336 1149 q 415 1153 389 1149 q 447 1160 436 1153 q 458 1186 457 1167 q 449 1206 458 1199 q 428 1218 440 1213 q 349 1236 388 1236 q 214 1201 293 1236 q 93 892 93 1142 l 97 746 q 36 504 97 601 l 28 486 q 44 465 28 474 q 97 392 90 447 q 110 263 110 333 q 111 118 111 192 l 118 31 q 185 -78 139 -46 q 285 -110 232 -110 z "},"|":{"ha":267,"x_min":69,"x_max":221,"o":"m 151 -1 q 201 16 190 4 q 213 64 213 28 l 217 547 l 221 547 l 221 1004 q 217 1074 221 1038 q 164 1114 206 1114 q 111 1106 129 1114 q 82 953 82 1092 l 79 661 q 74 269 78 490 l 69 51 q 90 7 69 19 l 100 6 q 151 -1 124 -1 z "},"}":{"ha":410,"x_min":28,"x_max":382,"o":"m 133 -125 q 244 -86 196 -125 q 304 19 292 -47 q 313 114 313 65 l 314 229 q 326 346 315 288 q 374 460 336 404 l 382 476 q 365 503 382 490 q 304 590 315 533 q 289 721 289 656 q 297 872 293 822 q 304 1047 304 956 q 178 1208 300 1169 q 104 1222 142 1222 q 53 1214 79 1222 q 28 1189 28 1206 q 39 1165 28 1178 q 89 1097 69 1132 q 108 1017 108 1063 q 126 756 114 886 q 141 619 128 686 q 196 494 154 553 l 192 468 q 161 403 167 442 q 149 281 153 329 q 143 180 146 232 q 135 42 140 128 q 116 -5 129 15 q 74 -32 103 -25 q 39 -72 40 -32 q 133 -125 39 -125 z "},"~":{"ha":481,"x_min":57,"x_max":453,"o":"m 299 394 q 383 418 342 394 q 446 490 425 442 l 453 533 q 431 575 453 564 q 363 586 408 586 l 349 581 q 327 568 336 575 q 315 543 318 561 q 306 490 315 517 q 297 504 299 499 q 293 513 296 510 q 186 581 253 581 l 158 578 q 57 450 68 560 q 66 415 57 422 q 103 404 75 408 q 144 431 126 404 l 171 460 q 299 394 232 394 z "},"":{"ha":319,"x_min":47,"x_max":265,"o":"m 179 -312 q 243 -301 225 -311 q 261 -240 261 -290 q 265 -14 261 -129 q 231 643 265 313 q 208 704 225 688 q 147 721 190 721 q 81 703 97 719 q 65 639 65 688 l 68 365 l 60 -18 l 56 -89 q 47 -224 47 -154 l 47 -235 q 82 -293 47 -274 q 161 -312 117 -312 l 179 -312 m 156 790 l 186 796 q 224 816 217 801 q 233 857 232 831 l 235 876 q 217 924 235 910 q 156 939 199 938 q 89 882 89 939 l 90 839 q 104 803 94 811 q 138 793 114 796 l 156 790 z "},"":{"ha":435,"x_min":28,"x_max":393,"o":"m 204 72 q 232 85 219 72 q 251 119 244 99 q 258 164 257 139 q 260 210 260 189 q 276 243 260 232 q 372 325 342 268 l 382 360 q 365 400 382 382 q 324 418 349 418 q 272 394 299 418 l 242 347 q 218 331 229 331 q 199 347 208 331 q 162 420 171 381 q 150 500 153 460 l 151 506 q 172 647 156 576 q 192 692 178 671 q 225 714 207 714 q 256 686 243 714 q 261 675 258 683 q 264 661 264 667 q 272 578 272 631 q 325 508 285 508 q 362 524 344 508 q 386 565 379 540 l 393 626 l 390 669 q 303 813 379 764 q 286 843 286 824 q 282 943 286 896 q 221 996 267 996 q 176 961 189 996 q 163 889 163 926 l 164 839 q 150 817 164 826 q 28 506 28 742 q 42 386 28 447 q 68 310 50 346 q 125 251 86 275 q 139 232 139 247 l 135 178 l 142 121 q 199 72 160 72 l 204 72 z "},"":{"ha":688,"x_min":28,"x_max":660,"o":"m 376 -22 q 572 -14 475 -22 q 660 21 660 -14 q 560 56 660 56 q 303 51 429 56 q 285 58 285 51 l 296 81 q 315 151 315 119 q 325 264 325 206 q 347 292 325 292 l 378 289 l 425 294 l 428 296 q 452 304 440 299 q 464 325 464 310 q 452 351 464 346 q 426 360 440 357 l 425 360 q 350 365 390 365 q 329 386 329 365 q 364 865 329 622 q 442 1061 383 989 q 469 1081 458 1081 q 493 1058 478 1081 q 556 1013 524 1013 l 571 1014 q 605 1018 590 1014 q 629 1039 619 1022 l 633 1060 q 607 1110 633 1083 q 447 1174 538 1174 l 399 1169 q 189 1000 261 1144 q 133 722 136 888 l 129 567 l 133 413 q 99 369 133 374 q 34 349 40 353 q 28 335 28 344 q 33 318 28 325 q 111 300 47 300 q 133 281 133 300 l 133 274 q 128 208 129 242 q 99 38 126 119 l 93 19 q 119 -10 93 -1 q 181 -22 149 -22 l 376 -22 z "},"":{"ha":749,"x_min":28,"x_max":717,"o":"m 360 -17 l 376 -15 q 415 3 403 -10 q 429 44 426 17 l 433 185 q 461 215 433 215 l 464 215 q 551 258 551 215 q 539 279 551 269 l 533 285 q 472 293 508 293 q 450 294 456 293 q 444 306 444 296 q 456 450 456 372 l 454 458 q 470 473 454 469 q 509 476 486 476 q 553 481 532 476 q 574 504 574 486 l 574 506 q 567 529 572 521 q 547 542 563 538 q 482 550 514 550 q 458 558 458 550 q 572 768 458 563 l 600 828 q 717 1101 707 1056 q 700 1126 717 1115 q 658 1138 683 1138 q 613 1127 635 1138 q 582 1099 590 1117 l 503 921 q 372 664 447 792 l 238 1042 q 138 1111 215 1111 q 28 1060 28 1111 l 38 1025 q 90 899 67 963 q 125 811 106 854 q 244 549 179 676 q 215 539 244 542 q 177 531 196 536 q 158 508 158 525 q 186 472 161 481 q 239 463 211 463 l 258 464 q 274 447 274 464 l 274 310 q 266 295 274 297 q 246 293 258 293 l 215 296 q 169 288 171 289 q 142 258 142 283 q 172 228 142 232 q 250 215 211 215 q 272 196 272 215 l 269 126 l 272 67 q 360 -17 289 -17 z "},"":{"ha":207,"x_min":28,"x_max":179,"o":"m 110 -107 q 160 -98 149 -104 q 171 -74 171 -92 l 179 397 q 175 432 179 414 q 122 453 164 453 q 69 447 88 451 q 40 371 40 442 l 38 225 q 32 29 36 139 l 28 -81 q 49 -103 28 -96 q 110 -107 93 -107 m 110 643 q 160 652 149 646 q 171 676 171 658 l 179 1147 q 175 1182 179 1164 q 122 1203 164 1203 q 69 1197 88 1201 q 40 1121 40 1192 l 38 975 q 32 779 36 889 l 28 669 q 49 647 28 654 q 110 643 93 643 z "},"":{"ha":664,"x_min":28,"x_max":617,"o":"m 285 -96 q 446 -47 369 -96 q 506 8 488 -21 q 525 86 524 36 q 419 279 525 207 q 407 289 414 285 q 393 301 400 293 q 401 305 397 303 q 408 308 404 307 q 415 310 411 310 q 541 379 488 331 q 594 496 594 428 q 454 701 581 642 q 379 742 418 725 q 201 956 201 821 q 221 1037 201 997 q 281 1107 240 1076 q 324 1126 303 1126 q 368 1107 346 1126 q 476 954 444 1047 q 497 919 481 928 q 543 908 514 911 l 589 915 q 617 949 617 925 q 593 1022 611 990 q 319 1201 485 1201 q 50 1019 143 1201 q 28 919 28 971 q 49 831 28 874 q 115 758 69 789 q 215 711 161 728 l 189 700 q 136 675 160 689 q 60 592 88 643 q 33 488 33 540 q 67 379 33 429 q 196 272 118 319 q 272 217 236 246 q 331 154 308 189 q 354 75 354 119 l 350 40 q 283 -15 326 -15 q 232 6 258 -15 q 161 35 200 35 q 127 31 144 33 q 102 21 110 28 q 92 -4 94 14 q 111 -39 92 -24 q 124 -47 115 -39 q 285 -96 200 -96 m 314 372 q 233 406 264 372 q 201 475 201 439 q 319 640 201 586 l 343 644 q 385 624 367 644 q 433 571 417 597 q 450 501 449 544 q 429 435 450 468 q 314 372 388 372 z "},"":{"ha":317,"x_min":28,"x_max":289,"o":"m 85 1047 q 128 1064 111 1047 q 144 1106 144 1081 q 128 1147 144 1131 q 86 1164 113 1164 q 44 1147 60 1164 q 28 1104 28 1129 q 44 1064 28 1081 q 85 1047 60 1047 m 232 1049 q 272 1066 256 1049 q 289 1110 289 1083 q 267 1147 285 1133 q 228 1161 250 1161 q 175 1099 179 1161 q 193 1063 175 1078 q 232 1049 211 1049 z "},"":{"ha":1013,"x_min":28,"x_max":978,"o":"m 517 15 q 718 63 632 15 q 836 156 789 100 q 918 281 883 211 q 978 538 978 404 l 969 638 q 853 899 947 782 q 613 1047 756 1013 q 517 1063 564 1063 q 275 983 386 1063 q 96 777 164 904 q 28 503 28 650 q 43 376 28 439 q 131 208 65 290 q 294 71 196 126 q 510 15 392 15 l 517 15 m 492 133 l 481 133 q 289 197 379 133 q 169 385 199 261 q 154 511 154 450 q 201 710 154 613 q 332 872 249 807 q 524 936 415 936 q 563 934 543 935 q 597 922 582 933 q 631 908 613 911 q 713 860 675 893 q 850 542 850 753 q 818 366 850 451 q 718 211 786 281 q 614 150 671 167 q 492 133 557 133 m 539 332 q 630 378 588 332 q 672 474 672 425 q 660 521 669 503 q 615 543 650 539 q 544 479 571 543 q 526 456 538 460 q 500 479 514 456 l 496 486 q 486 507 486 494 q 476 568 476 536 q 482 621 476 594 l 489 643 q 513 703 496 674 q 526 713 521 713 q 532 707 532 713 l 531 699 q 592 646 546 646 q 650 721 644 646 q 592 825 650 786 q 532 839 561 839 q 408 768 461 839 q 365 664 374 713 q 356 572 356 615 q 406 411 356 475 q 539 332 461 339 z "},"":{"ha":351,"x_min":28,"x_max":324,"o":"m 271 944 q 318 983 304 944 q 324 1035 324 1010 l 314 1196 q 301 1237 314 1225 q 265 1250 289 1249 q 250 1247 256 1250 q 237 1236 244 1243 q 215 1219 229 1229 q 187 1226 194 1226 q 167 1229 179 1226 l 128 1222 q 53 1163 78 1208 q 28 1071 28 1118 q 60 985 28 1019 q 135 950 93 950 q 210 988 171 950 q 213 993 210 990 q 218 996 215 996 q 224 983 224 992 q 271 944 233 950 m 131 1003 q 117 1010 119 1006 q 114 1031 114 1015 q 144 1092 122 1069 q 163 1104 150 1104 q 178 1099 174 1101 q 183 1088 183 1096 q 169 1046 178 1063 q 144 1010 160 1029 l 131 1003 z "},"":{"ha":629,"x_min":28,"x_max":601,"o":"m 269 215 q 322 226 304 219 q 340 251 340 233 q 321 285 340 265 q 178 460 239 365 l 171 476 q 178 494 171 485 l 231 575 q 274 633 249 603 l 339 717 q 349 743 349 732 q 321 768 349 761 l 285 774 q 204 733 239 774 q 39 507 111 631 q 28 475 28 492 q 39 442 28 458 l 82 386 q 199 246 135 313 q 269 215 229 215 m 522 215 q 575 226 557 219 q 593 251 593 233 q 574 285 593 265 q 431 460 492 365 l 424 476 q 431 494 424 485 l 483 575 q 526 633 501 603 l 592 717 q 601 743 601 732 q 574 768 601 761 l 538 774 q 457 733 492 774 q 292 507 364 631 q 281 475 281 492 q 292 442 281 458 l 335 386 q 451 246 388 313 q 522 215 482 215 z "},"":{"ha":1075,"x_min":28,"x_max":1039,"o":"m 519 36 q 794 103 676 36 q 985 324 911 171 q 1039 574 1039 443 q 1015 753 1039 660 q 928 915 990 846 q 624 1076 806 1051 l 600 1081 q 511 1092 557 1092 q 159 914 290 1068 q 28 563 28 760 q 196 154 28 304 q 510 36 331 36 l 519 36 m 524 157 l 492 157 q 275 249 363 157 q 153 519 153 375 q 160 635 153 578 q 197 746 168 693 q 471 963 285 913 l 529 969 q 797 872 681 964 q 887 738 858 821 q 915 569 915 654 q 876 393 915 478 q 524 157 781 157 m 497 353 l 506 354 q 550 406 539 354 l 554 515 l 589 482 q 638 442 614 457 q 704 419 661 426 q 740 434 724 419 q 757 468 757 449 q 740 506 757 486 q 732 524 740 515 q 671 571 706 550 q 658 586 658 579 q 671 601 658 593 q 701 633 690 613 l 711 646 q 738 733 738 689 q 719 802 738 771 q 667 850 701 833 q 583 869 625 869 q 533 862 557 869 q 493 854 508 854 l 483 854 q 440 839 457 854 q 424 793 424 824 l 421 668 q 430 463 428 497 q 444 393 432 428 q 497 353 464 353 m 540 667 l 540 763 q 549 778 540 776 q 565 781 557 781 q 579 782 574 781 q 606 773 600 782 q 617 746 611 764 q 593 697 608 714 q 540 667 578 681 z "},"":{"ha":313,"x_min":28,"x_max":285,"o":"m 149 983 q 256 1036 213 983 q 285 1107 285 1071 q 244 1193 285 1163 q 163 1224 204 1224 q 103 1211 133 1224 q 28 1107 28 1171 q 63 1023 28 1063 q 149 983 97 983 m 144 1065 q 115 1090 122 1065 q 121 1108 115 1099 q 134 1126 126 1118 q 146 1133 142 1133 q 156 1126 150 1133 q 167 1108 163 1118 q 172 1090 172 1099 q 144 1065 169 1065 z "},"":{"ha":256,"x_min":28,"x_max":228,"o":"m 171 958 l 206 963 q 228 993 228 967 q 175 1019 228 1019 l 193 1047 q 210 1078 204 1064 q 217 1121 217 1092 q 171 1201 217 1171 q 113 1217 142 1217 q 58 1208 88 1217 q 28 1176 28 1200 q 40 1149 32 1158 q 67 1140 47 1140 l 121 1153 l 128 1150 l 128 1132 q 96 1089 113 1111 q 72 1047 79 1067 q 60 1001 64 1028 q 73 971 60 983 q 106 958 86 958 l 171 958 z "},"":{"ha":244,"x_min":28,"x_max":217,"o":"m 111 933 q 159 944 135 933 q 200 975 183 956 q 214 1024 214 999 q 196 1079 214 1054 q 190 1093 190 1086 q 196 1106 190 1099 q 217 1149 217 1125 q 135 1240 201 1219 l 96 1244 q 49 1231 71 1244 q 28 1197 28 1217 q 40 1170 32 1179 q 71 1161 49 1161 l 83 1163 l 126 1179 l 126 1175 l 92 1149 q 71 1107 71 1128 q 85 1076 75 1086 q 118 1065 94 1065 l 140 1067 q 146 1065 144 1067 q 148 1059 147 1063 q 150 1053 149 1056 q 135 1044 150 1044 q 56 986 56 1031 q 65 954 58 965 q 111 933 79 938 z "},"":{"ha":254,"x_min":28,"x_max":203,"o":"m 56 985 q 78 993 67 985 q 203 1125 203 1090 q 183 1168 194 1156 q 143 1185 171 1181 q 117 1177 129 1182 q 99 1162 106 1172 q 88 1143 93 1151 q 28 1018 46 1089 q 43 989 28 1004 l 56 985 z "},"":{"ha":228,"x_min":47,"x_max":200,"o":"m 125 1053 q 183 1069 167 1053 q 200 1119 199 1086 q 179 1167 200 1156 q 113 1182 158 1178 q 97 1180 103 1181 q 89 1179 92 1179 q 83 1177 86 1179 q 76 1172 81 1175 q 64 1165 71 1169 q 47 1108 47 1138 l 51 1088 q 99 1058 61 1065 l 103 1057 q 125 1053 119 1057 z "},"":{"ha":231,"x_min":28,"x_max":203,"o":"m 88 -224 l 97 -222 q 176 -182 149 -217 q 203 -110 203 -147 q 124 -49 203 -54 q 105 -47 110 -49 q 100 -39 100 -46 l 101 4 q 71 47 101 40 q 38 29 46 47 q 28 -21 31 11 q 115 -110 28 -92 l 71 -136 q 42 -175 42 -156 q 56 -211 47 -199 q 88 -224 64 -224 z "},"":{"ha":207,"x_min":53,"x_max":179,"o":"m 114 939 q 157 959 139 939 q 175 1008 175 979 l 175 1083 l 179 1083 l 179 1157 q 162 1201 175 1189 q 115 1218 149 1213 q 74 1200 92 1218 q 53 1153 57 1182 l 53 1008 q 71 959 53 979 q 114 939 89 939 z "},"":{"ha":353,"x_min":28,"x_max":325,"o":"m 172 935 q 239 950 204 935 q 325 1090 325 989 l 321 1151 q 217 1247 306 1232 q 204 1251 208 1247 q 158 1264 181 1264 q 91 1234 121 1264 q 44 1163 61 1204 q 28 1088 28 1122 q 72 982 28 1029 q 172 935 117 935 m 182 1050 q 164 1063 172 1050 q 156 1090 156 1075 q 160 1117 156 1103 q 163 1124 161 1119 q 169 1135 165 1129 q 182 1142 174 1142 q 195 1131 192 1139 q 200 1117 199 1124 q 203 1107 201 1111 q 199 1059 201 1064 q 186 1051 197 1054 l 182 1050 z "},"":{"ha":646,"x_min":43,"x_max":618,"o":"m 400 222 q 474 257 450 222 q 524 329 497 292 q 618 481 618 464 q 608 504 618 492 q 451 739 543 628 q 378 774 424 774 q 311 742 313 774 q 317 719 311 728 q 335 697 322 710 l 347 682 q 460 508 407 599 q 471 482 471 496 q 460 457 471 469 q 390 356 422 410 q 333 260 357 306 q 353 235 333 247 q 400 222 372 222 m 132 222 q 206 257 182 222 q 256 329 229 292 q 350 481 350 464 q 340 504 350 492 q 183 739 275 628 q 110 774 156 774 q 43 742 44 774 q 49 719 43 728 q 67 697 54 710 l 79 682 q 192 508 139 599 q 203 482 203 496 q 192 457 203 469 q 122 356 154 410 q 65 260 89 306 q 85 235 65 247 q 132 222 104 222 z "},"":{"ha":808,"x_min":31,"x_max":781,"o":"m 338 -281 q 729 -115 567 -269 q 764 -73 753 -92 q 781 -24 775 -54 q 758 9 781 -1 q 707 19 735 19 q 629 -28 658 8 q 472 -150 571 -106 q 415 -162 446 -162 l 372 -154 q 285 -88 317 -135 q 254 13 254 -42 q 283 108 254 64 q 347 193 313 153 q 542 647 542 424 l 542 682 q 511 733 542 721 q 465 743 489 743 q 404 723 432 743 q 376 664 376 703 q 250 368 365 490 q 119 201 176 285 q 38 19 63 118 l 31 -44 q 74 -172 31 -119 q 187 -253 117 -225 q 338 -281 257 -281 m 442 806 q 478 812 458 806 q 506 840 499 818 q 514 882 514 863 q 508 919 514 900 q 480 948 501 939 q 432 957 458 957 l 411 956 q 368 894 368 947 q 372 850 372 878 q 397 814 372 822 q 442 806 422 806 z "},"":{"ha":639,"x_min":13,"x_max":592,"o":"m 104 -12 q 161 36 156 -12 q 165 140 161 89 l 174 328 q 196 350 174 350 q 286 344 240 344 l 378 344 q 400 328 397 344 l 422 214 q 458 155 432 176 q 518 133 485 133 q 565 145 539 133 q 592 185 592 157 q 553 512 572 382 q 496 824 533 642 l 488 868 q 447 1024 476 947 q 382 1105 425 1081 q 292 1129 339 1129 l 235 1125 q 161 1068 185 1115 q 117 901 133 985 l 104 846 q 13 144 29 499 l 13 75 q 104 -12 13 -10 m 204 463 q 189 468 189 463 l 190 476 q 261 919 219 697 q 265 922 264 921 q 265 924 265 922 q 274 907 272 915 q 278 893 276 899 q 361 524 332 713 l 365 508 q 372 482 372 494 q 372 476 372 479 q 369 470 371 474 q 336 467 367 467 q 204 463 258 467 m 368 1199 q 392 1209 381 1199 q 403 1233 403 1219 l 394 1261 l 343 1351 q 268 1386 321 1386 q 231 1369 247 1386 q 215 1328 215 1351 q 233 1284 222 1297 q 264 1261 243 1271 q 317 1228 292 1246 l 338 1213 q 368 1199 351 1199 z "},"":{"ha":639,"x_min":13,"x_max":592,"o":"m 104 -12 q 161 36 156 -12 q 165 140 161 89 l 174 328 q 196 350 174 350 q 286 344 240 344 l 378 344 q 400 328 397 344 l 422 214 q 458 155 432 176 q 518 133 485 133 q 565 145 539 133 q 592 185 592 157 q 553 512 572 382 q 496 824 533 642 l 488 868 q 447 1024 476 947 q 382 1105 425 1081 q 292 1129 339 1129 l 235 1125 q 161 1068 185 1115 q 117 901 133 985 l 104 846 q 13 144 29 499 l 13 75 q 104 -12 13 -10 m 204 463 q 189 468 189 463 l 190 476 q 261 919 219 697 q 265 922 264 921 q 265 924 265 922 q 274 907 272 915 q 278 893 276 899 q 361 524 332 713 l 365 508 q 372 482 372 494 q 372 476 372 479 q 369 470 371 474 q 336 467 367 467 q 204 463 258 467 m 299 1189 q 321 1197 310 1189 q 446 1329 446 1294 q 426 1372 438 1360 q 386 1389 414 1385 q 360 1381 372 1386 q 342 1366 349 1376 q 331 1347 336 1356 q 271 1222 289 1293 q 286 1193 271 1208 l 299 1189 z "},"":{"ha":639,"x_min":13,"x_max":592,"o":"m 104 -12 q 161 36 156 -12 q 165 140 161 89 l 174 328 q 196 350 174 350 q 286 344 240 344 l 378 344 q 400 328 397 344 l 422 214 q 458 155 432 176 q 518 133 485 133 q 565 145 539 133 q 592 185 592 157 q 553 512 572 382 q 496 824 533 642 l 488 868 q 447 1024 476 947 q 382 1105 425 1081 q 292 1129 339 1129 l 235 1125 q 161 1068 185 1115 q 117 901 133 985 l 104 846 q 13 144 29 499 l 13 75 q 104 -12 13 -10 m 204 463 q 189 468 189 463 l 190 476 q 261 919 219 697 q 265 922 264 921 q 265 924 265 922 q 274 907 272 915 q 278 893 276 899 q 361 524 332 713 l 365 508 q 372 482 372 494 q 372 476 372 479 q 369 470 371 474 q 336 467 367 467 q 204 463 258 467 m 400 1174 q 433 1189 422 1181 q 443 1221 443 1197 q 438 1243 443 1232 l 415 1278 q 370 1347 394 1315 q 319 1378 346 1378 q 268 1351 281 1378 l 197 1239 l 190 1214 q 199 1188 190 1194 q 226 1175 208 1181 q 288 1233 254 1175 q 310 1258 303 1258 q 319 1249 314 1254 q 328 1237 324 1243 q 338 1217 333 1231 l 346 1208 q 370 1185 357 1196 q 400 1174 383 1174 z "},"":{"ha":639,"x_min":13,"x_max":592,"o":"m 104 -12 q 161 36 156 -12 q 165 140 161 89 l 174 328 q 196 350 174 350 q 286 344 240 344 l 378 344 q 400 328 397 344 l 422 214 q 458 155 432 176 q 518 133 485 133 q 565 145 539 133 q 592 185 592 157 q 553 512 572 382 q 496 824 533 642 l 488 868 q 447 1024 476 947 q 382 1105 425 1081 q 292 1129 339 1129 l 235 1125 q 161 1068 185 1115 q 117 901 133 985 l 104 846 q 13 144 29 499 l 13 75 q 104 -12 13 -10 m 204 463 q 189 468 189 463 l 190 476 q 261 919 219 697 q 265 922 264 921 q 265 924 265 922 q 274 907 272 915 q 278 893 276 899 q 361 524 332 713 l 365 508 q 372 482 372 494 q 372 476 372 479 q 369 470 371 474 q 336 467 367 467 q 204 463 258 467 m 363 1179 q 447 1203 406 1179 q 508 1275 489 1226 l 517 1318 q 494 1360 517 1349 q 426 1371 472 1371 l 413 1365 q 390 1353 399 1360 q 378 1328 382 1346 q 369 1275 378 1301 q 360 1289 363 1283 q 357 1297 358 1294 q 250 1365 317 1365 l 222 1363 q 121 1235 131 1344 q 130 1200 121 1207 q 165 1189 139 1193 q 208 1215 190 1189 l 235 1244 q 363 1179 294 1179 z "},"":{"ha":639,"x_min":13,"x_max":592,"o":"m 104 -12 q 161 36 156 -12 q 165 140 161 89 l 174 328 q 196 350 174 350 q 286 344 240 344 l 378 344 q 400 328 397 344 l 422 214 q 458 155 432 176 q 518 133 485 133 q 565 145 539 133 q 592 185 592 157 q 553 512 572 382 q 496 824 533 642 l 488 868 q 447 1024 476 947 q 382 1105 425 1081 q 292 1129 339 1129 l 235 1125 q 161 1068 185 1115 q 117 901 133 985 l 104 846 q 13 144 29 499 l 13 75 q 104 -12 13 -10 m 204 463 q 189 468 189 463 l 190 476 q 261 919 219 697 q 265 922 264 921 q 265 924 265 922 q 274 907 272 915 q 278 893 276 899 q 361 524 332 713 l 365 508 q 372 482 372 494 q 372 476 372 479 q 369 470 371 474 q 336 467 367 467 q 204 463 258 467 m 238 1200 q 281 1217 264 1200 q 297 1258 297 1233 q 281 1300 297 1283 q 239 1317 265 1317 q 197 1299 213 1317 q 181 1257 181 1282 q 197 1217 181 1233 q 238 1200 213 1200 m 385 1201 q 425 1219 408 1201 q 442 1263 442 1236 q 420 1300 438 1286 q 381 1314 403 1314 q 328 1251 332 1314 q 346 1216 328 1231 q 385 1201 364 1201 z "},"":{"ha":639,"x_min":13,"x_max":592,"o":"m 104 -12 q 161 36 156 -12 q 165 140 161 89 l 174 328 q 196 350 174 350 q 286 344 240 344 l 378 344 q 400 328 397 344 l 422 214 q 458 155 432 176 q 518 133 485 133 q 565 145 539 133 q 592 185 592 157 q 553 512 572 382 q 496 824 533 642 l 488 868 q 447 1024 476 947 q 382 1105 425 1081 q 292 1129 339 1129 l 235 1125 q 161 1068 185 1115 q 117 901 133 985 l 104 846 q 13 144 29 499 l 13 75 q 104 -12 13 -10 m 204 463 q 189 468 189 463 l 190 476 q 261 919 219 697 q 265 922 264 921 q 265 924 265 922 q 274 907 272 915 q 278 893 276 899 q 361 524 332 713 l 365 508 q 372 482 372 494 q 372 476 372 479 q 369 470 371 474 q 336 467 367 467 q 204 463 258 467 m 301 1169 q 408 1222 365 1169 q 438 1293 438 1257 q 397 1379 438 1349 q 315 1410 357 1410 q 254 1397 286 1410 q 181 1293 181 1357 q 215 1209 181 1249 q 301 1169 250 1169 m 297 1251 q 268 1276 275 1251 q 274 1294 268 1285 q 287 1312 279 1304 q 299 1319 294 1319 q 309 1312 303 1319 q 320 1294 315 1304 q 325 1276 325 1285 q 297 1251 322 1251 z "},"":{"ha":888,"x_min":19,"x_max":896,"o":"m 111 -12 q 168 36 163 -12 q 172 140 168 89 l 181 328 q 203 350 181 350 q 293 344 247 344 l 385 344 q 407 328 404 344 l 429 214 q 465 155 439 176 q 525 133 492 133 q 572 145 546 133 q 599 185 599 157 q 560 512 579 382 q 503 824 540 642 l 494 868 q 454 1024 483 947 q 389 1105 432 1081 q 299 1129 346 1129 l 242 1125 q 168 1068 192 1115 q 124 901 140 985 l 111 846 q 19 144 36 499 l 19 75 q 111 -12 19 -10 m 211 463 q 196 468 196 463 l 197 476 q 268 919 226 697 q 272 922 271 921 q 272 924 272 922 q 281 907 279 915 q 285 893 283 899 q 368 524 339 713 l 372 508 q 379 482 379 494 q 378 476 379 479 q 376 470 378 474 q 343 467 374 467 q 211 463 265 467 m 743 -6 q 817 21 782 -6 q 839 60 839 33 q 826 78 836 72 q 804 87 817 83 q 778 90 792 90 q 704 94 743 94 q 678 117 678 94 l 678 133 q 668 344 668 232 l 674 686 q 685 715 676 713 q 708 717 693 717 q 717 713 713 714 q 774 711 721 713 q 821 717 799 711 q 851 751 851 729 q 829 788 851 772 q 783 809 807 803 q 733 815 758 815 q 701 816 718 815 q 685 824 685 817 q 708 988 701 907 q 725 1004 708 1004 l 828 993 l 869 1000 q 896 1031 896 1013 q 876 1064 896 1047 q 704 1100 832 1100 q 600 1092 651 1100 q 517 1058 536 1082 q 490 982 497 1033 q 463 749 471 846 q 454 514 456 651 q 490 60 454 288 q 506 18 493 31 q 743 -6 529 -6 z "},"":{"ha":661,"x_min":4,"x_max":632,"o":"m 393 -7 l 418 -6 q 606 169 564 26 l 608 186 q 590 222 608 214 q 539 235 572 231 q 488 220 511 235 q 453 174 464 206 q 428 104 447 138 q 388 71 410 71 q 326 116 361 71 q 275 208 292 161 q 246 356 253 288 q 239 513 239 425 q 279 835 239 676 q 375 988 294 931 q 414 1004 399 1004 q 464 950 443 1004 q 485 850 485 896 l 478 776 q 553 692 478 706 q 592 713 576 692 q 632 826 632 767 q 594 983 632 921 q 497 1078 557 1046 q 367 1111 436 1111 q 162 1033 249 1111 q 39 831 75 956 q 4 588 4 697 q 96 190 4 371 q 322 4 169 44 q 393 -7 357 -7 m 376 -221 l 386 -219 q 465 -179 438 -214 q 492 -107 492 -144 q 413 -46 492 -51 q 394 -44 399 -46 q 389 -36 389 -43 l 390 7 q 360 50 390 43 q 327 32 335 50 q 317 -18 319 14 q 404 -107 317 -89 l 360 -133 q 331 -172 331 -153 q 344 -208 336 -196 q 376 -221 353 -221 z "},"":{"ha":500,"x_min":40,"x_max":482,"o":"m 329 -6 q 403 21 368 -6 q 425 60 425 33 q 413 78 422 72 q 390 87 403 83 q 364 90 378 90 q 290 94 329 94 q 264 117 264 94 l 264 133 q 254 344 254 232 l 260 686 q 271 715 263 713 q 294 717 279 717 q 303 713 299 714 q 360 711 307 713 q 407 717 385 711 q 438 751 438 729 q 415 788 438 772 q 369 809 393 803 q 319 815 344 815 q 288 816 304 815 q 271 824 271 817 q 294 988 288 907 q 311 1004 294 1004 l 414 993 l 456 1000 q 482 1031 482 1013 q 463 1064 482 1047 q 290 1100 418 1100 q 186 1092 238 1100 q 103 1058 122 1082 q 76 982 83 1033 q 49 749 57 846 q 40 514 42 651 q 76 60 40 288 q 92 18 79 31 q 329 -6 115 -6 m 294 1190 q 318 1201 307 1190 q 329 1225 329 1211 l 321 1253 l 269 1343 q 194 1378 247 1378 q 158 1360 174 1378 q 142 1319 142 1343 q 159 1276 149 1289 q 190 1253 169 1263 q 243 1219 218 1238 l 264 1204 q 294 1190 278 1190 z "},"":{"ha":500,"x_min":40,"x_max":482,"o":"m 329 -6 q 403 21 368 -6 q 425 60 425 33 q 413 78 422 72 q 390 87 403 83 q 364 90 378 90 q 290 94 329 94 q 264 117 264 94 l 264 133 q 254 344 254 232 l 260 686 q 271 715 263 713 q 294 717 279 717 q 303 713 299 714 q 360 711 307 713 q 407 717 385 711 q 438 751 438 729 q 415 788 438 772 q 369 809 393 803 q 319 815 344 815 q 288 816 304 815 q 271 824 271 817 q 294 988 288 907 q 311 1004 294 1004 l 414 993 l 456 1000 q 482 1031 482 1013 q 463 1064 482 1047 q 290 1100 418 1100 q 186 1092 238 1100 q 103 1058 122 1082 q 76 982 83 1033 q 49 749 57 846 q 40 514 42 651 q 76 60 40 288 q 92 18 79 31 q 329 -6 115 -6 m 225 1183 q 247 1192 236 1183 q 372 1324 372 1289 q 352 1367 364 1354 q 313 1383 340 1379 q 287 1376 299 1381 q 269 1360 275 1371 q 257 1342 263 1350 q 197 1217 215 1288 q 213 1188 197 1203 l 225 1183 z "},"":{"ha":500,"x_min":40,"x_max":482,"o":"m 329 -6 q 403 21 368 -6 q 425 60 425 33 q 413 78 422 72 q 390 87 403 83 q 364 90 378 90 q 290 94 329 94 q 264 117 264 94 l 264 133 q 254 344 254 232 l 260 686 q 271 715 263 713 q 294 717 279 717 q 303 713 299 714 q 360 711 307 713 q 407 717 385 711 q 438 751 438 729 q 415 788 438 772 q 369 809 393 803 q 319 815 344 815 q 288 816 304 815 q 271 824 271 817 q 294 988 288 907 q 311 1004 294 1004 l 414 993 l 456 1000 q 482 1031 482 1013 q 463 1064 482 1047 q 290 1100 418 1100 q 186 1092 238 1100 q 103 1058 122 1082 q 76 982 83 1033 q 49 749 57 846 q 40 514 42 651 q 76 60 40 288 q 92 18 79 31 q 329 -6 115 -6 m 346 1174 q 378 1189 368 1181 q 389 1221 389 1197 q 383 1243 389 1232 l 361 1278 q 316 1347 340 1315 q 265 1378 292 1378 q 214 1351 226 1378 l 143 1239 l 136 1214 q 145 1188 136 1194 q 172 1175 154 1181 q 233 1233 200 1175 q 256 1258 249 1258 q 265 1249 260 1254 q 274 1237 269 1243 q 283 1217 279 1231 l 292 1208 q 316 1185 303 1196 q 346 1174 329 1174 z "},"":{"ha":500,"x_min":40,"x_max":482,"o":"m 329 -6 q 403 21 368 -6 q 425 60 425 33 q 413 78 422 72 q 390 87 403 83 q 364 90 378 90 q 290 94 329 94 q 264 117 264 94 l 264 133 q 254 344 254 232 l 260 686 q 271 715 263 713 q 294 717 279 717 q 303 713 299 714 q 360 711 307 713 q 407 717 385 711 q 438 751 438 729 q 415 788 438 772 q 369 809 393 803 q 319 815 344 815 q 288 816 304 815 q 271 824 271 817 q 294 988 288 907 q 311 1004 294 1004 l 414 993 l 456 1000 q 482 1031 482 1013 q 463 1064 482 1047 q 290 1100 418 1100 q 186 1092 238 1100 q 103 1058 122 1082 q 76 982 83 1033 q 49 749 57 846 q 40 514 42 651 q 76 60 40 288 q 92 18 79 31 q 329 -6 115 -6 m 189 1178 q 232 1194 215 1178 q 249 1236 249 1211 q 233 1278 249 1261 q 190 1294 217 1294 q 148 1277 164 1294 q 132 1235 132 1260 q 148 1194 132 1211 q 189 1178 164 1178 m 336 1179 q 376 1197 360 1179 q 393 1240 393 1214 q 372 1278 389 1264 q 332 1292 354 1292 q 279 1229 283 1292 q 297 1194 279 1208 q 336 1179 315 1179 z "},"":{"ha":318,"x_min":35,"x_max":228,"o":"m 163 28 q 205 49 186 31 q 224 103 224 67 l 224 554 l 228 688 l 228 947 q 210 1021 228 986 q 194 1051 204 1038 q 163 1064 185 1064 q 116 1059 139 1064 q 79 1029 93 1054 q 63 964 63 997 q 58 886 58 925 q 46 546 46 715 l 53 207 q 63 89 53 147 q 94 44 69 61 q 151 28 119 28 l 163 28 m 188 1146 q 211 1156 200 1146 q 222 1181 222 1167 l 214 1208 l 163 1299 q 88 1333 140 1333 q 51 1316 67 1333 q 35 1275 35 1299 q 52 1231 42 1244 q 83 1208 63 1218 q 136 1175 111 1193 l 157 1160 q 188 1146 171 1146 z "},"":{"ha":318,"x_min":46,"x_max":265,"o":"m 163 28 q 205 49 186 31 q 224 103 224 67 l 224 554 l 228 688 l 228 947 q 210 1021 228 986 q 194 1051 204 1038 q 163 1064 185 1064 q 116 1059 139 1064 q 79 1029 93 1054 q 63 964 63 997 q 58 886 58 925 q 46 546 46 715 l 53 207 q 63 89 53 147 q 94 44 69 61 q 151 28 119 28 l 163 28 m 118 1146 q 140 1154 129 1146 q 265 1286 265 1251 q 245 1329 257 1317 q 206 1346 233 1342 q 180 1338 192 1343 q 162 1323 168 1333 q 150 1304 156 1313 q 90 1179 108 1250 q 106 1150 90 1165 l 118 1146 z "},"":{"ha":318,"x_min":15,"x_max":268,"o":"m 163 28 q 205 49 186 31 q 224 103 224 67 l 224 554 l 228 688 l 228 947 q 210 1021 228 986 q 194 1051 204 1038 q 163 1064 185 1064 q 116 1059 139 1064 q 79 1029 93 1054 q 63 964 63 997 q 58 886 58 925 q 46 546 46 715 l 53 207 q 63 89 53 147 q 94 44 69 61 q 151 28 119 28 l 163 28 m 225 1140 q 258 1156 247 1147 q 268 1188 268 1164 q 263 1210 268 1199 l 240 1244 q 195 1313 219 1282 q 144 1344 171 1344 q 93 1318 106 1344 l 22 1206 l 15 1181 q 24 1154 15 1161 q 51 1142 33 1147 q 113 1200 79 1142 q 135 1225 128 1225 q 144 1215 139 1221 q 153 1203 149 1210 q 163 1183 158 1197 l 171 1175 q 195 1151 182 1163 q 225 1140 208 1140 z "},"":{"ha":318,"x_min":8,"x_max":269,"o":"m 163 28 q 205 49 186 31 q 224 103 224 67 l 224 554 l 228 688 l 228 947 q 210 1021 228 986 q 194 1051 204 1038 q 163 1064 185 1064 q 116 1059 139 1064 q 79 1029 93 1054 q 63 964 63 997 q 58 886 58 925 q 46 546 46 715 l 53 207 q 63 89 53 147 q 94 44 69 61 q 151 28 119 28 l 163 28 m 65 1147 q 108 1164 92 1147 q 125 1206 125 1181 q 109 1247 125 1231 q 67 1264 93 1264 q 24 1247 40 1264 q 8 1204 8 1229 q 24 1164 8 1181 q 65 1147 40 1147 m 213 1149 q 253 1166 236 1149 q 269 1210 269 1183 q 248 1247 265 1233 q 208 1261 231 1261 q 156 1199 160 1261 q 174 1163 156 1178 q 213 1149 192 1149 z "},"":{"ha":667,"x_min":-115,"x_max":636,"o":"m 136 -10 q 204 14 172 -10 q 449 227 344 108 q 608 510 553 346 q 636 669 636 589 q 622 819 636 743 q 542 984 607 918 q 383 1083 476 1050 q 192 1115 289 1115 q 100 1071 138 1115 q 65 989 74 1040 q 42 762 46 875 q 39 528 39 649 l 38 450 q 69 40 38 250 q 121 -8 81 -8 l 136 -10 m 231 167 q 243 469 231 329 q 269 924 257 747 q 265 993 269 956 q 271 1008 265 1008 l 282 1006 q 478 789 443 960 q 489 669 489 726 q 300 226 489 433 q 231 167 275 196 m 144 582 l 338 583 q 389 596 363 583 q 411 622 411 603 q 406 637 411 632 q 393 644 400 642 q 361 656 378 654 q 143 657 344 657 q -69 656 -54 657 q -100 648 -85 656 q -115 622 -115 640 q -99 601 -115 608 q 144 582 -61 582 z "},"":{"ha":814,"x_min":43,"x_max":728,"o":"m 164 -51 q 201 -45 181 -51 q 221 -25 221 -39 q 225 19 225 -7 l 221 211 q 238 651 221 433 l 239 664 q 247 815 239 735 l 256 803 l 360 432 q 467 168 407 299 l 517 50 q 542 19 528 32 q 551 10 547 15 q 596 -8 574 -8 q 651 32 629 -8 q 665 71 665 46 q 699 386 693 228 l 708 519 q 728 972 724 735 q 719 1047 728 1007 q 678 1094 711 1086 l 629 1101 q 567 1078 590 1101 q 543 1003 543 1054 l 542 938 l 547 776 l 551 297 q 541 305 543 301 q 539 315 539 308 q 416 678 465 493 q 290 1046 367 863 l 285 1060 q 260 1109 275 1086 q 219 1147 246 1132 q 158 1163 192 1163 q 93 1132 118 1163 q 68 1060 68 1101 l 58 874 q 43 493 43 682 q 64 46 43 265 l 67 29 q 82 -19 69 4 q 116 -43 93 -35 q 164 -51 139 -51 m 492 1160 q 576 1183 535 1160 q 638 1256 618 1207 l 646 1299 q 624 1340 646 1329 q 556 1351 601 1351 l 542 1346 q 519 1333 528 1340 q 507 1308 511 1326 q 499 1256 507 1282 q 490 1269 492 1264 q 486 1278 488 1275 q 379 1346 446 1346 l 351 1343 q 250 1215 260 1325 q 259 1181 250 1188 q 294 1169 268 1174 q 338 1196 319 1169 l 364 1225 q 492 1160 424 1160 z "},"":{"ha":743,"x_min":25,"x_max":675,"o":"m 401 -36 q 453 -28 426 -36 q 632 164 597 15 q 675 468 675 317 q 600 975 675 796 q 532 1086 576 1035 q 346 1175 454 1175 q 201 1125 268 1175 q 96 986 133 1075 q 25 588 25 818 l 26 533 q 122 138 26 347 q 340 -28 192 3 q 401 -36 371 -36 m 407 101 q 310 150 351 101 q 257 276 267 207 q 217 581 217 446 q 229 765 218 678 q 283 939 240 851 q 396 1033 317 1017 q 453 990 435 1017 q 483 925 472 963 q 540 690 532 814 q 553 521 553 606 q 543 351 551 436 q 510 186 535 267 l 510 181 q 484 131 496 149 q 449 107 472 114 l 407 101 m 411 1261 q 435 1272 424 1261 q 446 1296 446 1282 l 438 1324 l 386 1414 q 311 1449 364 1449 q 274 1431 290 1449 q 258 1390 258 1414 q 276 1347 265 1360 q 307 1324 286 1333 q 360 1290 335 1308 l 381 1275 q 411 1261 394 1261 z "},"":{"ha":743,"x_min":25,"x_max":675,"o":"m 401 -36 q 453 -28 426 -36 q 632 164 597 15 q 675 468 675 317 q 600 975 675 796 q 532 1086 576 1035 q 346 1175 454 1175 q 201 1125 268 1175 q 96 986 133 1075 q 25 588 25 818 l 26 533 q 122 138 26 347 q 340 -28 192 3 q 401 -36 371 -36 m 407 101 q 310 150 351 101 q 257 276 267 207 q 217 581 217 446 q 229 765 218 678 q 283 939 240 851 q 396 1033 317 1017 q 453 990 435 1017 q 483 925 472 963 q 540 690 532 814 q 553 521 553 606 q 543 351 551 436 q 510 186 535 267 l 510 181 q 484 131 496 149 q 449 107 472 114 l 407 101 m 350 1253 q 372 1261 361 1253 q 497 1393 497 1358 q 477 1436 489 1424 q 438 1453 465 1449 q 412 1445 424 1450 q 394 1430 400 1440 q 382 1411 388 1419 q 322 1286 340 1357 q 338 1257 322 1272 l 350 1253 z "},"":{"ha":743,"x_min":25,"x_max":675,"o":"m 401 -36 q 453 -28 426 -36 q 632 164 597 15 q 675 468 675 317 q 600 975 675 796 q 532 1086 576 1035 q 346 1175 454 1175 q 201 1125 268 1175 q 96 986 133 1075 q 25 588 25 818 l 26 533 q 122 138 26 347 q 340 -28 192 3 q 401 -36 371 -36 m 407 101 q 310 150 351 101 q 257 276 267 207 q 217 581 217 446 q 229 765 218 678 q 283 939 240 851 q 396 1033 317 1017 q 453 990 435 1017 q 483 925 472 963 q 540 690 532 814 q 553 521 553 606 q 543 351 551 436 q 510 186 535 267 l 510 181 q 484 131 496 149 q 449 107 472 114 l 407 101 m 463 1242 q 495 1257 485 1249 q 506 1289 506 1265 q 500 1311 506 1300 l 478 1346 q 433 1415 457 1383 q 382 1446 408 1446 q 331 1419 343 1446 l 260 1307 l 253 1282 q 262 1256 253 1263 q 289 1243 271 1249 q 350 1301 317 1243 q 372 1326 365 1326 q 381 1317 376 1322 q 391 1305 386 1311 q 400 1285 396 1299 l 408 1276 q 433 1253 419 1264 q 463 1242 446 1242 z "},"":{"ha":743,"x_min":25,"x_max":675,"o":"m 401 -36 q 453 -28 426 -36 q 632 164 597 15 q 675 468 675 317 q 600 975 675 796 q 532 1086 576 1035 q 346 1175 454 1175 q 201 1125 268 1175 q 96 986 133 1075 q 25 588 25 818 l 26 533 q 122 138 26 347 q 340 -28 192 3 q 401 -36 371 -36 m 407 101 q 310 150 351 101 q 257 276 267 207 q 217 581 217 446 q 229 765 218 678 q 283 939 240 851 q 396 1033 317 1017 q 453 990 435 1017 q 483 925 472 963 q 540 690 532 814 q 553 521 553 606 q 543 351 551 436 q 510 186 535 267 l 510 181 q 484 131 496 149 q 449 107 472 114 l 407 101 m 411 1222 q 496 1246 454 1222 q 557 1318 538 1269 l 565 1361 q 543 1403 565 1392 q 475 1414 521 1414 l 461 1408 q 439 1396 447 1403 q 426 1371 431 1389 q 418 1318 426 1344 q 409 1332 411 1326 q 406 1340 407 1338 q 299 1408 365 1408 l 271 1406 q 169 1278 179 1388 q 178 1243 169 1250 q 214 1232 188 1236 q 257 1258 239 1232 l 283 1288 q 411 1222 343 1222 z "},"":{"ha":743,"x_min":25,"x_max":675,"o":"m 401 -36 q 453 -28 426 -36 q 632 164 597 15 q 675 468 675 317 q 600 975 675 796 q 532 1086 576 1035 q 346 1175 454 1175 q 201 1125 268 1175 q 96 986 133 1075 q 25 588 25 818 l 26 533 q 122 138 26 347 q 340 -28 192 3 q 401 -36 371 -36 m 407 101 q 310 150 351 101 q 257 276 267 207 q 217 581 217 446 q 229 765 218 678 q 283 939 240 851 q 396 1033 317 1017 q 453 990 435 1017 q 483 925 472 963 q 540 690 532 814 q 553 521 553 606 q 543 351 551 436 q 510 186 535 267 l 510 181 q 484 131 496 149 q 449 107 472 114 l 407 101 m 297 1236 q 340 1253 324 1236 q 357 1294 357 1269 q 341 1336 357 1319 q 299 1353 325 1353 q 256 1335 272 1353 q 240 1293 240 1318 q 256 1253 240 1269 q 297 1236 272 1236 m 444 1238 q 485 1255 468 1238 q 501 1299 501 1272 q 480 1336 497 1322 q 440 1350 463 1350 q 388 1288 392 1350 q 406 1252 388 1267 q 444 1238 424 1238 z "},"":{"ha":485,"x_min":28,"x_max":456,"o":"m 99 268 q 135 283 117 268 l 140 289 l 140 290 l 142 292 q 143 292 142 292 q 146 296 144 293 q 208 365 174 331 l 240 399 q 258 408 250 407 q 278 397 267 408 q 339 332 315 356 q 378 311 356 318 q 393 308 386 308 q 411 332 411 308 q 397 375 411 357 l 326 453 q 321 467 321 458 q 325 475 321 471 l 383 526 q 419 553 404 539 l 435 567 q 456 604 456 583 q 433 647 456 624 l 403 674 q 375 682 389 682 q 342 671 358 682 l 265 610 l 235 581 q 215 572 225 572 q 194 579 206 572 q 121 642 161 618 q 90 654 107 654 q 72 646 79 654 q 65 631 65 638 q 74 606 65 622 l 79 599 q 101 565 88 581 l 149 522 q 153 513 153 517 q 144 499 153 507 q 50 396 93 453 q 28 349 28 374 q 51 296 28 324 q 99 268 75 268 z "},"":{"ha":743,"x_min":25,"x_max":703,"o":"m 401 -36 q 453 -28 426 -36 q 632 164 597 15 q 675 468 675 317 q 600 975 675 796 q 532 1086 576 1035 q 346 1175 454 1175 q 201 1125 268 1175 q 96 986 133 1075 q 25 588 25 818 l 26 533 q 122 138 26 347 q 340 -28 192 3 q 401 -36 371 -36 m 407 101 q 310 150 351 101 q 257 276 267 207 q 217 581 217 446 q 229 765 218 678 q 283 939 240 851 q 396 1033 317 1017 q 453 990 435 1017 q 483 925 472 963 q 540 690 532 814 q 553 521 553 606 q 543 351 551 436 q 510 186 535 267 l 510 181 q 484 131 496 149 q 449 107 472 114 l 407 101 m 140 -12 q 240 49 197 -12 q 501 599 383 318 q 697 1019 594 813 l 703 1042 q 687 1069 703 1056 q 650 1092 671 1082 q 604 1103 629 1103 l 553 1103 q 492 1058 510 1097 l 61 53 l 57 35 q 65 18 57 25 q 140 -12 101 -12 z "},"":{"ha":700,"x_min":46,"x_max":633,"o":"m 344 -21 q 423 -9 400 -21 q 479 39 446 3 l 492 53 q 544 131 532 85 q 622 501 613 310 q 633 713 633 606 q 626 885 633 799 l 619 964 q 604 1085 617 1025 q 540 1146 592 1146 q 482 1085 482 1140 q 510 693 510 842 q 479 357 507 506 q 436 179 467 268 q 360 115 415 132 q 340 126 349 115 q 292 196 313 158 q 263 315 269 256 q 257 436 257 374 l 256 499 q 261 631 256 565 q 274 761 267 697 q 288 889 282 825 q 306 1076 306 978 q 271 1144 306 1117 q 201 1171 236 1171 q 79 1054 93 1158 q 49 725 49 889 l 46 643 q 65 397 46 553 q 144 110 79 246 q 344 -21 206 -21 m 456 1228 q 479 1238 468 1228 q 490 1263 490 1249 l 482 1290 l 431 1381 q 356 1415 408 1415 q 319 1398 335 1415 q 303 1357 303 1381 q 320 1313 310 1326 q 351 1290 331 1300 q 404 1257 379 1275 l 425 1242 q 456 1228 439 1228 z "},"":{"ha":700,"x_min":46,"x_max":633,"o":"m 344 -21 q 423 -9 400 -21 q 479 39 446 3 l 492 53 q 544 131 532 85 q 622 501 613 310 q 633 713 633 606 q 626 885 633 799 l 619 964 q 604 1085 617 1025 q 540 1146 592 1146 q 482 1085 482 1140 q 510 693 510 842 q 479 357 507 506 q 436 179 467 268 q 360 115 415 132 q 340 126 349 115 q 292 196 313 158 q 263 315 269 256 q 257 436 257 374 l 256 499 q 261 631 256 565 q 274 761 267 697 q 288 889 282 825 q 306 1076 306 978 q 271 1144 306 1117 q 201 1171 236 1171 q 79 1054 93 1158 q 49 725 49 889 l 46 643 q 65 397 46 553 q 144 110 79 246 q 344 -21 206 -21 m 407 1211 q 429 1219 418 1211 q 554 1351 554 1317 q 534 1394 546 1382 q 494 1411 522 1407 q 469 1403 481 1408 q 451 1388 457 1399 q 439 1369 444 1378 q 379 1244 397 1315 q 394 1215 379 1231 l 407 1211 z "},"":{"ha":700,"x_min":46,"x_max":633,"o":"m 344 -21 q 423 -9 400 -21 q 479 39 446 3 l 492 53 q 544 131 532 85 q 622 501 613 310 q 633 713 633 606 q 626 885 633 799 l 619 964 q 604 1085 617 1025 q 540 1146 592 1146 q 482 1085 482 1140 q 510 693 510 842 q 479 357 507 506 q 436 179 467 268 q 360 115 415 132 q 340 126 349 115 q 292 196 313 158 q 263 315 269 256 q 257 436 257 374 l 256 499 q 261 631 256 565 q 274 761 267 697 q 288 889 282 825 q 306 1076 306 978 q 271 1144 306 1117 q 201 1171 236 1171 q 79 1054 93 1158 q 49 725 49 889 l 46 643 q 65 397 46 553 q 144 110 79 246 q 344 -21 206 -21 m 499 1236 q 531 1251 521 1243 q 542 1283 542 1260 q 536 1306 542 1294 l 514 1340 q 469 1409 493 1378 q 418 1440 444 1440 q 367 1414 379 1440 l 296 1301 l 289 1276 q 298 1250 289 1257 q 325 1238 307 1243 q 386 1296 353 1238 q 408 1321 401 1321 q 417 1311 413 1317 q 427 1299 422 1306 q 436 1279 432 1293 l 444 1271 q 469 1247 456 1258 q 499 1236 482 1236 z "},"":{"ha":700,"x_min":46,"x_max":633,"o":"m 344 -21 q 423 -9 400 -21 q 479 39 446 3 l 492 53 q 544 131 532 85 q 622 501 613 310 q 633 713 633 606 q 626 885 633 799 l 619 964 q 604 1085 617 1025 q 540 1146 592 1146 q 482 1085 482 1140 q 510 693 510 842 q 479 357 507 506 q 436 179 467 268 q 360 115 415 132 q 340 126 349 115 q 292 196 313 158 q 263 315 269 256 q 257 436 257 374 l 256 499 q 261 631 256 565 q 274 761 267 697 q 288 889 282 825 q 306 1076 306 978 q 271 1144 306 1117 q 201 1171 236 1171 q 79 1054 93 1158 q 49 725 49 889 l 46 643 q 65 397 46 553 q 144 110 79 246 q 344 -21 206 -21 m 347 1222 q 390 1239 374 1222 q 407 1281 407 1256 q 391 1322 407 1306 q 349 1339 375 1339 q 306 1322 322 1339 q 290 1279 290 1304 q 306 1239 290 1256 q 347 1222 322 1222 m 494 1224 q 535 1241 518 1224 q 551 1285 551 1258 q 530 1322 547 1308 q 490 1336 513 1336 q 438 1274 442 1336 q 456 1238 438 1253 q 494 1224 474 1224 z "},"":{"ha":633,"x_min":46,"x_max":588,"o":"m 313 -1 q 375 19 346 -1 q 431 185 431 60 l 414 574 q 428 635 414 606 l 450 682 l 542 931 q 571 1001 560 971 q 588 1071 582 1032 q 569 1112 588 1096 q 529 1128 551 1128 q 481 1104 504 1128 l 458 1074 q 365 854 413 975 l 338 782 q 267 999 303 892 q 128 1117 232 1106 q 70 1094 94 1117 q 46 1035 46 1071 q 76 939 51 983 l 219 617 q 238 574 238 592 q 228 386 228 478 l 222 183 l 224 99 q 285 3 228 15 l 313 -1 m 278 1232 q 321 1249 304 1232 q 338 1290 338 1265 q 322 1332 338 1315 q 279 1349 306 1349 q 237 1331 253 1349 q 221 1289 221 1314 q 237 1249 221 1265 q 278 1232 253 1232 m 425 1233 q 465 1251 449 1233 q 482 1294 482 1268 q 460 1332 478 1318 q 421 1346 443 1346 q 368 1283 372 1346 q 386 1248 368 1263 q 425 1233 404 1233 z "},"":{"ha":633,"x_min":46,"x_max":588,"o":"m 313 -1 q 375 19 346 -1 q 431 185 431 60 l 414 574 q 428 635 414 606 l 450 682 l 542 931 q 571 1001 560 971 q 588 1071 582 1032 q 569 1112 588 1096 q 529 1128 551 1128 q 481 1104 504 1128 l 458 1074 q 365 854 413 975 l 338 782 q 267 999 303 892 q 128 1117 232 1106 q 70 1094 94 1117 q 46 1035 46 1071 q 76 939 51 983 l 219 617 q 238 574 238 592 q 228 386 228 478 l 222 183 l 224 99 q 285 3 228 15 l 313 -1 m 321 1183 q 343 1192 332 1183 q 468 1324 468 1289 q 448 1367 460 1354 q 408 1383 436 1379 q 383 1376 394 1381 q 365 1360 371 1371 q 353 1342 358 1350 q 293 1217 311 1288 q 308 1188 293 1203 l 321 1183 z "},"":{"ha":863,"x_min":28,"x_max":797,"o":"m 225 -135 q 263 -115 247 -135 q 311 -12 311 -75 q 279 319 301 160 q 258 672 265 506 q 266 855 258 768 q 306 1011 274 942 q 406 1125 338 1081 q 475 1140 440 1140 q 508 1139 493 1139 q 531 1132 524 1139 q 543 1116 538 1125 q 558 1099 549 1107 l 563 1090 q 639 908 639 1018 l 636 868 q 575 751 619 800 l 546 708 q 471 596 503 651 q 439 482 439 540 q 458 394 439 438 q 511 310 482 347 q 581 176 558 253 l 588 132 q 572 88 588 106 q 519 54 556 71 l 444 42 q 408 -8 408 22 q 430 -67 415 -47 q 478 -86 444 -86 q 529 -76 519 -79 q 567 -68 539 -74 q 699 1 651 -57 q 746 139 746 60 q 732 238 746 186 q 654 403 701 321 l 640 429 q 621 494 621 461 q 640 564 621 528 l 678 617 q 758 738 722 675 q 797 893 797 818 q 751 1065 797 988 q 631 1188 704 1142 q 478 1233 557 1233 q 367 1217 422 1233 l 342 1210 q 236 1169 281 1199 q 57 921 107 1074 q 28 658 29 789 l 28 656 q 106 -33 28 353 q 225 -135 126 -124 z "},"":{"ha":639,"x_min":13,"x_max":592,"o":"m 104 -12 q 161 36 156 -12 q 165 140 161 89 l 174 328 q 196 350 174 350 q 286 344 240 344 l 378 344 q 400 328 397 344 l 422 214 q 458 155 432 176 q 518 133 485 133 q 565 145 539 133 q 592 185 592 157 q 553 512 572 382 q 496 824 533 642 l 488 868 q 447 1024 476 947 q 382 1105 425 1081 q 292 1129 339 1129 l 235 1125 q 161 1068 185 1115 q 117 901 133 985 l 104 846 q 13 144 29 499 l 13 75 q 104 -12 13 -10 m 204 463 q 189 468 189 463 l 190 476 q 261 919 219 697 q 265 922 264 921 q 265 924 265 922 q 274 907 272 915 q 278 893 276 899 q 361 524 332 713 l 365 508 q 372 482 372 494 q 372 476 372 479 q 369 470 371 474 q 336 467 367 467 q 204 463 258 467 m 368 1199 q 392 1209 381 1199 q 403 1233 403 1219 l 394 1261 l 343 1351 q 268 1386 321 1386 q 231 1369 247 1386 q 215 1328 215 1351 q 233 1284 222 1297 q 264 1261 243 1271 q 317 1228 292 1246 l 338 1213 q 368 1199 351 1199 z "},"":{"ha":639,"x_min":13,"x_max":592,"o":"m 104 -12 q 161 36 156 -12 q 165 140 161 89 l 174 328 q 196 350 174 350 q 286 344 240 344 l 378 344 q 400 328 397 344 l 422 214 q 458 155 432 176 q 518 133 485 133 q 565 145 539 133 q 592 185 592 157 q 553 512 572 382 q 496 824 533 642 l 488 868 q 447 1024 476 947 q 382 1105 425 1081 q 292 1129 339 1129 l 235 1125 q 161 1068 185 1115 q 117 901 133 985 l 104 846 q 13 144 29 499 l 13 75 q 104 -12 13 -10 m 204 463 q 189 468 189 463 l 190 476 q 261 919 219 697 q 265 922 264 921 q 265 924 265 922 q 274 907 272 915 q 278 893 276 899 q 361 524 332 713 l 365 508 q 372 482 372 494 q 372 476 372 479 q 369 470 371 474 q 336 467 367 467 q 204 463 258 467 m 299 1189 q 321 1197 310 1189 q 446 1329 446 1294 q 426 1372 438 1360 q 386 1389 414 1385 q 360 1381 372 1386 q 342 1366 349 1376 q 331 1347 336 1356 q 271 1222 289 1293 q 286 1193 271 1208 l 299 1189 z "},"":{"ha":639,"x_min":13,"x_max":592,"o":"m 104 -12 q 161 36 156 -12 q 165 140 161 89 l 174 328 q 196 350 174 350 q 286 344 240 344 l 378 344 q 400 328 397 344 l 422 214 q 458 155 432 176 q 518 133 485 133 q 565 145 539 133 q 592 185 592 157 q 553 512 572 382 q 496 824 533 642 l 488 868 q 447 1024 476 947 q 382 1105 425 1081 q 292 1129 339 1129 l 235 1125 q 161 1068 185 1115 q 117 901 133 985 l 104 846 q 13 144 29 499 l 13 75 q 104 -12 13 -10 m 204 463 q 189 468 189 463 l 190 476 q 261 919 219 697 q 265 922 264 921 q 265 924 265 922 q 274 907 272 915 q 278 893 276 899 q 361 524 332 713 l 365 508 q 372 482 372 494 q 372 476 372 479 q 369 470 371 474 q 336 467 367 467 q 204 463 258 467 m 400 1174 q 433 1189 422 1181 q 443 1221 443 1197 q 438 1243 443 1232 l 415 1278 q 370 1347 394 1315 q 319 1378 346 1378 q 268 1351 281 1378 l 197 1239 l 190 1214 q 199 1188 190 1194 q 226 1175 208 1181 q 288 1233 254 1175 q 310 1258 303 1258 q 319 1249 314 1254 q 328 1237 324 1243 q 338 1217 333 1231 l 346 1208 q 370 1185 357 1196 q 400 1174 383 1174 m 358 1317 q 381 1323 376 1317 q 389 1343 386 1329 l 385 1356 q 347 1392 365 1379 q 299 1411 328 1406 q 258 1368 261 1411 q 293 1325 258 1336 l 358 1317 z "},"":{"ha":639,"x_min":13,"x_max":592,"o":"m 104 -12 q 161 36 156 -12 q 165 140 161 89 l 174 328 q 196 350 174 350 q 286 344 240 344 l 378 344 q 400 328 397 344 l 422 214 q 458 155 432 176 q 518 133 485 133 q 565 145 539 133 q 592 185 592 157 q 553 512 572 382 q 496 824 533 642 l 488 868 q 447 1024 476 947 q 382 1105 425 1081 q 292 1129 339 1129 l 235 1125 q 161 1068 185 1115 q 117 901 133 985 l 104 846 q 13 144 29 499 l 13 75 q 104 -12 13 -10 m 204 463 q 189 468 189 463 l 190 476 q 261 919 219 697 q 265 922 264 921 q 265 924 265 922 q 274 907 272 915 q 278 893 276 899 q 361 524 332 713 l 365 508 q 372 482 372 494 q 372 476 372 479 q 369 470 371 474 q 336 467 367 467 q 204 463 258 467 m 363 1179 q 447 1203 406 1179 q 508 1275 489 1226 l 517 1318 q 494 1360 517 1349 q 426 1371 472 1371 l 413 1365 q 390 1353 399 1360 q 378 1328 382 1346 q 369 1275 378 1301 q 360 1289 363 1283 q 357 1297 358 1294 q 250 1365 317 1365 l 222 1363 q 121 1235 131 1344 q 130 1200 121 1207 q 165 1189 139 1193 q 208 1215 190 1189 l 235 1244 q 363 1179 294 1179 m 108 1219 l 135 1224 q 153 1250 147 1236 q 162 1282 158 1264 q 192 1323 165 1300 q 239 1346 219 1346 q 296 1328 268 1342 q 326 1297 314 1319 q 345 1276 332 1285 q 369 1267 358 1267 q 386 1276 378 1271 q 401 1288 394 1281 q 407 1304 407 1294 l 403 1324 q 413 1336 403 1332 q 457 1347 433 1347 l 474 1346 q 487 1349 483 1346 q 493 1365 490 1353 q 454 1386 493 1386 q 405 1370 428 1386 q 374 1328 382 1354 q 353 1301 367 1315 l 347 1310 q 307 1357 333 1342 q 250 1383 281 1372 q 224 1390 238 1388 q 192 1381 207 1390 q 132 1338 153 1367 q 92 1244 92 1281 q 108 1219 92 1225 z "},"":{"ha":639,"x_min":13,"x_max":592,"o":"m 104 -12 q 161 36 156 -12 q 165 140 161 89 l 174 328 q 196 350 174 350 q 286 344 240 344 l 378 344 q 400 328 397 344 l 422 214 q 458 155 432 176 q 518 133 485 133 q 565 145 539 133 q 592 185 592 157 q 553 512 572 382 q 496 824 533 642 l 488 868 q 447 1024 476 947 q 382 1105 425 1081 q 292 1129 339 1129 l 235 1125 q 161 1068 185 1115 q 117 901 133 985 l 104 846 q 13 144 29 499 l 13 75 q 104 -12 13 -10 m 204 463 q 189 468 189 463 l 190 476 q 261 919 219 697 q 265 922 264 921 q 265 924 265 922 q 274 907 272 915 q 278 893 276 899 q 361 524 332 713 l 365 508 q 372 482 372 494 q 372 476 372 479 q 369 470 371 474 q 336 467 367 467 q 204 463 258 467 m 238 1200 q 281 1217 264 1200 q 297 1258 297 1233 q 281 1300 297 1283 q 239 1317 265 1317 q 197 1299 213 1317 q 181 1257 181 1282 q 197 1217 181 1233 q 238 1200 213 1200 m 385 1201 q 425 1219 408 1201 q 442 1263 442 1236 q 420 1300 438 1286 q 381 1314 403 1314 q 328 1251 332 1314 q 346 1216 328 1231 q 385 1201 364 1201 z "},"":{"ha":639,"x_min":13,"x_max":592,"o":"m 104 -12 q 161 36 156 -12 q 165 140 161 89 l 174 328 q 196 350 174 350 q 286 344 240 344 l 378 344 q 400 328 397 344 l 422 214 q 458 155 432 176 q 518 133 485 133 q 565 145 539 133 q 592 185 592 157 q 553 512 572 382 q 496 824 533 642 l 488 868 q 447 1024 476 947 q 382 1105 425 1081 q 292 1129 339 1129 l 235 1125 q 161 1068 185 1115 q 117 901 133 985 l 104 846 q 13 144 29 499 l 13 75 q 104 -12 13 -10 m 204 463 q 189 468 189 463 l 190 476 q 261 919 219 697 q 265 922 264 921 q 265 924 265 922 q 274 907 272 915 q 278 893 276 899 q 361 524 332 713 l 365 508 q 372 482 372 494 q 372 476 372 479 q 369 470 371 474 q 336 467 367 467 q 204 463 258 467 m 301 1169 q 408 1222 365 1169 q 438 1293 438 1257 q 397 1379 438 1349 q 315 1410 357 1410 q 254 1397 286 1410 q 181 1293 181 1357 q 215 1209 181 1249 q 301 1169 250 1169 m 297 1251 q 268 1276 275 1251 q 274 1294 268 1285 q 287 1312 279 1304 q 299 1319 294 1319 q 309 1312 303 1319 q 320 1294 315 1304 q 325 1276 325 1285 q 297 1251 322 1251 m 246 1360 q 288 1367 271 1363 q 340 1372 306 1372 q 374 1376 364 1372 q 386 1400 383 1381 q 382 1415 386 1410 q 370 1425 378 1421 q 356 1438 363 1429 q 293 1446 324 1446 l 254 1442 q 207 1393 207 1425 q 246 1360 207 1360 z "},"":{"ha":888,"x_min":19,"x_max":896,"o":"m 111 -12 q 168 36 163 -12 q 172 140 168 89 l 181 328 q 203 350 181 350 q 293 344 247 344 l 385 344 q 407 328 404 344 l 429 214 q 465 155 439 176 q 525 133 492 133 q 572 145 546 133 q 599 185 599 157 q 560 512 579 382 q 503 824 540 642 l 494 868 q 454 1024 483 947 q 389 1105 432 1081 q 299 1129 346 1129 l 242 1125 q 168 1068 192 1115 q 124 901 140 985 l 111 846 q 19 144 36 499 l 19 75 q 111 -12 19 -10 m 211 463 q 196 468 196 463 l 197 476 q 268 919 226 697 q 272 922 271 921 q 272 924 272 922 q 281 907 279 915 q 285 893 283 899 q 368 524 339 713 l 372 508 q 379 482 379 494 q 378 476 379 479 q 376 470 378 474 q 343 467 374 467 q 211 463 265 467 m 743 -6 q 817 21 782 -6 q 839 60 839 33 q 826 78 836 72 q 804 87 817 83 q 778 90 792 90 q 704 94 743 94 q 678 117 678 94 l 678 133 q 668 344 668 232 l 674 686 q 685 715 676 713 q 708 717 693 717 q 717 713 713 714 q 774 711 721 713 q 821 717 799 711 q 851 751 851 729 q 829 788 851 772 q 783 809 807 803 q 733 815 758 815 q 701 816 718 815 q 685 824 685 817 q 708 988 701 907 q 725 1004 708 1004 l 828 993 l 869 1000 q 896 1031 896 1013 q 876 1064 896 1047 q 704 1100 832 1100 q 600 1092 651 1100 q 517 1058 536 1082 q 490 982 497 1033 q 463 749 471 846 q 454 514 456 651 q 490 60 454 288 q 506 18 493 31 q 743 -6 529 -6 z "},"":{"ha":661,"x_min":4,"x_max":632,"o":"m 393 -7 l 418 -6 q 606 169 564 26 l 608 186 q 590 222 608 214 q 539 235 572 231 q 488 220 511 235 q 453 174 464 206 q 428 104 447 138 q 388 71 410 71 q 326 116 361 71 q 275 208 292 161 q 246 356 253 288 q 239 513 239 425 q 279 835 239 676 q 375 988 294 931 q 414 1004 399 1004 q 464 950 443 1004 q 485 850 485 896 l 478 776 q 553 692 478 706 q 592 713 576 692 q 632 826 632 767 q 594 983 632 921 q 497 1078 557 1046 q 367 1111 436 1111 q 162 1033 249 1111 q 39 831 75 956 q 4 588 4 697 q 96 190 4 371 q 322 4 169 44 q 393 -7 357 -7 m 376 -221 l 386 -219 q 465 -179 438 -214 q 492 -107 492 -144 q 413 -46 492 -51 q 394 -44 399 -46 q 389 -36 389 -43 l 390 7 q 360 50 390 43 q 327 32 335 50 q 317 -18 319 14 q 404 -107 317 -89 l 360 -133 q 331 -172 331 -153 q 344 -208 336 -196 q 376 -221 353 -221 z "},"":{"ha":500,"x_min":40,"x_max":482,"o":"m 329 -6 q 403 21 368 -6 q 425 60 425 33 q 413 78 422 72 q 390 87 403 83 q 364 90 378 90 q 290 94 329 94 q 264 117 264 94 l 264 133 q 254 344 254 232 l 260 686 q 271 715 263 713 q 294 717 279 717 q 303 713 299 714 q 360 711 307 713 q 407 717 385 711 q 438 751 438 729 q 415 788 438 772 q 369 809 393 803 q 319 815 344 815 q 288 816 304 815 q 271 824 271 817 q 294 988 288 907 q 311 1004 294 1004 l 414 993 l 456 1000 q 482 1031 482 1013 q 463 1064 482 1047 q 290 1100 418 1100 q 186 1092 238 1100 q 103 1058 122 1082 q 76 982 83 1033 q 49 749 57 846 q 40 514 42 651 q 76 60 40 288 q 92 18 79 31 q 329 -6 115 -6 m 294 1190 q 318 1201 307 1190 q 329 1225 329 1211 l 321 1253 l 269 1343 q 194 1378 247 1378 q 158 1360 174 1378 q 142 1319 142 1343 q 159 1276 149 1289 q 190 1253 169 1263 q 243 1219 218 1238 l 264 1204 q 294 1190 278 1190 z "},"":{"ha":500,"x_min":40,"x_max":482,"o":"m 329 -6 q 403 21 368 -6 q 425 60 425 33 q 413 78 422 72 q 390 87 403 83 q 364 90 378 90 q 290 94 329 94 q 264 117 264 94 l 264 133 q 254 344 254 232 l 260 686 q 271 715 263 713 q 294 717 279 717 q 303 713 299 714 q 360 711 307 713 q 407 717 385 711 q 438 751 438 729 q 415 788 438 772 q 369 809 393 803 q 319 815 344 815 q 288 816 304 815 q 271 824 271 817 q 294 988 288 907 q 311 1004 294 1004 l 414 993 l 456 1000 q 482 1031 482 1013 q 463 1064 482 1047 q 290 1100 418 1100 q 186 1092 238 1100 q 103 1058 122 1082 q 76 982 83 1033 q 49 749 57 846 q 40 514 42 651 q 76 60 40 288 q 92 18 79 31 q 329 -6 115 -6 m 225 1183 q 247 1192 236 1183 q 372 1324 372 1289 q 352 1367 364 1354 q 313 1383 340 1379 q 287 1376 299 1381 q 269 1360 275 1371 q 257 1342 263 1350 q 197 1217 215 1288 q 213 1188 197 1203 l 225 1183 z "},"":{"ha":500,"x_min":40,"x_max":482,"o":"m 329 -6 q 403 21 368 -6 q 425 60 425 33 q 413 78 422 72 q 390 87 403 83 q 364 90 378 90 q 290 94 329 94 q 264 117 264 94 l 264 133 q 254 344 254 232 l 260 686 q 271 715 263 713 q 294 717 279 717 q 303 713 299 714 q 360 711 307 713 q 407 717 385 711 q 438 751 438 729 q 415 788 438 772 q 369 809 393 803 q 319 815 344 815 q 288 816 304 815 q 271 824 271 817 q 294 988 288 907 q 311 1004 294 1004 l 414 993 l 456 1000 q 482 1031 482 1013 q 463 1064 482 1047 q 290 1100 418 1100 q 186 1092 238 1100 q 103 1058 122 1082 q 76 982 83 1033 q 49 749 57 846 q 40 514 42 651 q 76 60 40 288 q 92 18 79 31 q 329 -6 115 -6 m 346 1174 q 378 1189 368 1181 q 389 1221 389 1197 q 383 1243 389 1232 l 361 1278 q 316 1347 340 1315 q 265 1378 292 1378 q 214 1351 226 1378 l 143 1239 l 136 1214 q 145 1188 136 1194 q 172 1175 154 1181 q 233 1233 200 1175 q 256 1258 249 1258 q 265 1249 260 1254 q 274 1237 269 1243 q 283 1217 279 1231 l 292 1208 q 316 1185 303 1196 q 346 1174 329 1174 m 304 1317 q 327 1323 322 1317 q 335 1343 332 1329 l 331 1356 q 292 1392 311 1379 q 244 1411 274 1406 q 204 1368 207 1411 q 239 1325 204 1336 l 304 1317 z "},"":{"ha":500,"x_min":40,"x_max":482,"o":"m 329 -6 q 403 21 368 -6 q 425 60 425 33 q 413 78 422 72 q 390 87 403 83 q 364 90 378 90 q 290 94 329 94 q 264 117 264 94 l 264 133 q 254 344 254 232 l 260 686 q 271 715 263 713 q 294 717 279 717 q 303 713 299 714 q 360 711 307 713 q 407 717 385 711 q 438 751 438 729 q 415 788 438 772 q 369 809 393 803 q 319 815 344 815 q 288 816 304 815 q 271 824 271 817 q 294 988 288 907 q 311 1004 294 1004 l 414 993 l 456 1000 q 482 1031 482 1013 q 463 1064 482 1047 q 290 1100 418 1100 q 186 1092 238 1100 q 103 1058 122 1082 q 76 982 83 1033 q 49 749 57 846 q 40 514 42 651 q 76 60 40 288 q 92 18 79 31 q 329 -6 115 -6 m 189 1178 q 232 1194 215 1178 q 249 1236 249 1211 q 233 1278 249 1261 q 190 1294 217 1294 q 148 1277 164 1294 q 132 1235 132 1260 q 148 1194 132 1211 q 189 1178 164 1178 m 336 1179 q 376 1197 360 1179 q 393 1240 393 1214 q 372 1278 389 1264 q 332 1292 354 1292 q 279 1229 283 1292 q 297 1194 279 1208 q 336 1179 315 1179 z "},"":{"ha":318,"x_min":35,"x_max":228,"o":"m 163 28 q 205 49 186 31 q 224 103 224 67 l 224 554 l 228 688 l 228 947 q 210 1021 228 986 q 194 1051 204 1038 q 163 1064 185 1064 q 116 1059 139 1064 q 79 1029 93 1054 q 63 964 63 997 q 58 886 58 925 q 46 546 46 715 l 53 207 q 63 89 53 147 q 94 44 69 61 q 151 28 119 28 l 163 28 m 188 1146 q 211 1156 200 1146 q 222 1181 222 1167 l 214 1208 l 163 1299 q 88 1333 140 1333 q 51 1316 67 1333 q 35 1275 35 1299 q 52 1231 42 1244 q 83 1208 63 1218 q 136 1175 111 1193 l 157 1160 q 188 1146 171 1146 z "},"":{"ha":318,"x_min":46,"x_max":265,"o":"m 163 28 q 205 49 186 31 q 224 103 224 67 l 224 554 l 228 688 l 228 947 q 210 1021 228 986 q 194 1051 204 1038 q 163 1064 185 1064 q 116 1059 139 1064 q 79 1029 93 1054 q 63 964 63 997 q 58 886 58 925 q 46 546 46 715 l 53 207 q 63 89 53 147 q 94 44 69 61 q 151 28 119 28 l 163 28 m 118 1146 q 140 1154 129 1146 q 265 1286 265 1251 q 245 1329 257 1317 q 206 1346 233 1342 q 180 1338 192 1343 q 162 1323 168 1333 q 150 1304 156 1313 q 90 1179 108 1250 q 106 1150 90 1165 l 118 1146 z "},"":{"ha":318,"x_min":15,"x_max":268,"o":"m 163 28 q 205 49 186 31 q 224 103 224 67 l 224 554 l 228 688 l 228 947 q 210 1021 228 986 q 194 1051 204 1038 q 163 1064 185 1064 q 116 1059 139 1064 q 79 1029 93 1054 q 63 964 63 997 q 58 886 58 925 q 46 546 46 715 l 53 207 q 63 89 53 147 q 94 44 69 61 q 151 28 119 28 l 163 28 m 225 1140 q 258 1156 247 1147 q 268 1188 268 1164 q 263 1210 268 1199 l 240 1244 q 195 1313 219 1282 q 144 1344 171 1344 q 93 1318 106 1344 l 22 1206 l 15 1181 q 24 1154 15 1161 q 51 1142 33 1147 q 113 1200 79 1142 q 135 1225 128 1225 q 144 1215 139 1221 q 153 1203 149 1210 q 163 1183 158 1197 l 171 1175 q 195 1151 182 1163 q 225 1140 208 1140 m 183 1283 q 206 1290 201 1283 q 214 1310 211 1296 l 210 1322 q 172 1359 190 1346 q 124 1378 153 1372 q 83 1335 86 1378 q 118 1292 83 1303 l 183 1283 z "},"":{"ha":318,"x_min":8,"x_max":269,"o":"m 163 28 q 205 49 186 31 q 224 103 224 67 l 224 554 l 228 688 l 228 947 q 210 1021 228 986 q 194 1051 204 1038 q 163 1064 185 1064 q 116 1059 139 1064 q 79 1029 93 1054 q 63 964 63 997 q 58 886 58 925 q 46 546 46 715 l 53 207 q 63 89 53 147 q 94 44 69 61 q 151 28 119 28 l 163 28 m 65 1147 q 108 1164 92 1147 q 125 1206 125 1181 q 109 1247 125 1231 q 67 1264 93 1264 q 24 1247 40 1264 q 8 1204 8 1229 q 24 1164 8 1181 q 65 1147 40 1147 m 213 1149 q 253 1166 236 1149 q 269 1210 269 1183 q 248 1247 265 1233 q 208 1261 231 1261 q 156 1199 160 1261 q 174 1163 156 1178 q 213 1149 192 1149 z "},"":{"ha":814,"x_min":43,"x_max":728,"o":"m 164 -51 q 201 -45 181 -51 q 221 -25 221 -39 q 225 19 225 -7 l 221 211 q 238 651 221 433 l 239 664 q 247 815 239 735 l 256 803 l 360 432 q 467 168 407 299 l 517 50 q 542 19 528 32 q 551 10 547 15 q 596 -8 574 -8 q 651 32 629 -8 q 665 71 665 46 q 699 386 693 228 l 708 519 q 728 972 724 735 q 719 1047 728 1007 q 678 1094 711 1086 l 629 1101 q 567 1078 590 1101 q 543 1003 543 1054 l 542 938 l 547 776 l 551 297 q 541 305 543 301 q 539 315 539 308 q 416 678 465 493 q 290 1046 367 863 l 285 1060 q 260 1109 275 1086 q 219 1147 246 1132 q 158 1163 192 1163 q 93 1132 118 1163 q 68 1060 68 1101 l 58 874 q 43 493 43 682 q 64 46 43 265 l 67 29 q 82 -19 69 4 q 116 -43 93 -35 q 164 -51 139 -51 m 492 1160 q 576 1183 535 1160 q 638 1256 618 1207 l 646 1299 q 624 1340 646 1329 q 556 1351 601 1351 l 542 1346 q 519 1333 528 1340 q 507 1308 511 1326 q 499 1256 507 1282 q 490 1269 492 1264 q 486 1278 488 1275 q 379 1346 446 1346 l 351 1343 q 250 1215 260 1325 q 259 1181 250 1188 q 294 1169 268 1174 q 338 1196 319 1169 l 364 1225 q 492 1160 424 1160 m 238 1200 l 264 1204 q 282 1231 276 1217 q 291 1263 288 1244 q 322 1303 294 1281 q 368 1326 349 1326 q 425 1308 397 1322 q 456 1278 443 1300 q 474 1256 461 1265 q 499 1247 488 1247 q 515 1256 507 1251 q 530 1268 524 1261 q 536 1285 536 1275 l 532 1304 q 542 1317 532 1313 q 586 1328 563 1328 l 603 1326 q 616 1330 613 1326 q 622 1346 619 1333 q 583 1367 622 1367 q 534 1351 557 1367 q 503 1308 511 1335 q 482 1282 496 1296 l 476 1290 q 436 1338 463 1322 q 379 1364 410 1353 q 353 1371 367 1368 q 321 1361 336 1371 q 261 1318 282 1347 q 221 1225 221 1261 q 238 1200 221 1206 z "},"":{"ha":743,"x_min":25,"x_max":675,"o":"m 401 -36 q 453 -28 426 -36 q 632 164 597 15 q 675 468 675 317 q 600 975 675 796 q 532 1086 576 1035 q 346 1175 454 1175 q 201 1125 268 1175 q 96 986 133 1075 q 25 588 25 818 l 26 533 q 122 138 26 347 q 340 -28 192 3 q 401 -36 371 -36 m 407 101 q 310 150 351 101 q 257 276 267 207 q 217 581 217 446 q 229 765 218 678 q 283 939 240 851 q 396 1033 317 1017 q 453 990 435 1017 q 483 925 472 963 q 540 690 532 814 q 553 521 553 606 q 543 351 551 436 q 510 186 535 267 l 510 181 q 484 131 496 149 q 449 107 472 114 l 407 101 m 411 1261 q 435 1272 424 1261 q 446 1296 446 1282 l 438 1324 l 386 1414 q 311 1449 364 1449 q 274 1431 290 1449 q 258 1390 258 1414 q 276 1347 265 1360 q 307 1324 286 1333 q 360 1290 335 1308 l 381 1275 q 411 1261 394 1261 z "},"":{"ha":743,"x_min":25,"x_max":675,"o":"m 401 -36 q 453 -28 426 -36 q 632 164 597 15 q 675 468 675 317 q 600 975 675 796 q 532 1086 576 1035 q 346 1175 454 1175 q 201 1125 268 1175 q 96 986 133 1075 q 25 588 25 818 l 26 533 q 122 138 26 347 q 340 -28 192 3 q 401 -36 371 -36 m 407 101 q 310 150 351 101 q 257 276 267 207 q 217 581 217 446 q 229 765 218 678 q 283 939 240 851 q 396 1033 317 1017 q 453 990 435 1017 q 483 925 472 963 q 540 690 532 814 q 553 521 553 606 q 543 351 551 436 q 510 186 535 267 l 510 181 q 484 131 496 149 q 449 107 472 114 l 407 101 m 350 1253 q 372 1261 361 1253 q 497 1393 497 1358 q 477 1436 489 1424 q 438 1453 465 1449 q 412 1445 424 1450 q 394 1430 400 1440 q 382 1411 388 1419 q 322 1286 340 1357 q 338 1257 322 1272 l 350 1253 z "},"":{"ha":743,"x_min":25,"x_max":675,"o":"m 401 -36 q 453 -28 426 -36 q 632 164 597 15 q 675 468 675 317 q 600 975 675 796 q 532 1086 576 1035 q 346 1175 454 1175 q 201 1125 268 1175 q 96 986 133 1075 q 25 588 25 818 l 26 533 q 122 138 26 347 q 340 -28 192 3 q 401 -36 371 -36 m 407 101 q 310 150 351 101 q 257 276 267 207 q 217 581 217 446 q 229 765 218 678 q 283 939 240 851 q 396 1033 317 1017 q 453 990 435 1017 q 483 925 472 963 q 540 690 532 814 q 553 521 553 606 q 543 351 551 436 q 510 186 535 267 l 510 181 q 484 131 496 149 q 449 107 472 114 l 407 101 m 463 1242 q 495 1257 485 1249 q 506 1289 506 1265 q 500 1311 506 1300 l 478 1346 q 433 1415 457 1383 q 382 1446 408 1446 q 331 1419 343 1446 l 260 1307 l 253 1282 q 262 1256 253 1263 q 289 1243 271 1249 q 350 1301 317 1243 q 372 1326 365 1326 q 381 1317 376 1322 q 391 1305 386 1311 q 400 1285 396 1299 l 408 1276 q 433 1253 419 1264 q 463 1242 446 1242 m 421 1385 q 444 1391 439 1385 q 451 1411 449 1397 l 447 1424 q 409 1460 428 1447 q 361 1479 390 1474 q 321 1436 324 1479 q 356 1393 321 1404 l 421 1385 z "},"":{"ha":743,"x_min":25,"x_max":675,"o":"m 401 -36 q 453 -28 426 -36 q 632 164 597 15 q 675 468 675 317 q 600 975 675 796 q 532 1086 576 1035 q 346 1175 454 1175 q 201 1125 268 1175 q 96 986 133 1075 q 25 588 25 818 l 26 533 q 122 138 26 347 q 340 -28 192 3 q 401 -36 371 -36 m 407 101 q 310 150 351 101 q 257 276 267 207 q 217 581 217 446 q 229 765 218 678 q 283 939 240 851 q 396 1033 317 1017 q 453 990 435 1017 q 483 925 472 963 q 540 690 532 814 q 553 521 553 606 q 543 351 551 436 q 510 186 535 267 l 510 181 q 484 131 496 149 q 449 107 472 114 l 407 101 m 411 1222 q 496 1246 454 1222 q 557 1318 538 1269 l 565 1361 q 543 1403 565 1392 q 475 1414 521 1414 l 461 1408 q 439 1396 447 1403 q 426 1371 431 1389 q 418 1318 426 1344 q 409 1332 411 1326 q 406 1340 407 1338 q 299 1408 365 1408 l 271 1406 q 169 1278 179 1388 q 178 1243 169 1250 q 214 1232 188 1236 q 257 1258 239 1232 l 283 1288 q 411 1222 343 1222 m 157 1263 l 183 1267 q 201 1293 196 1279 q 210 1325 207 1307 q 241 1366 214 1343 q 288 1389 268 1389 q 344 1371 317 1385 q 375 1340 363 1363 q 394 1319 381 1328 q 418 1310 407 1310 q 435 1319 426 1314 q 449 1331 443 1324 q 456 1347 456 1338 l 451 1367 q 461 1379 451 1375 q 506 1390 482 1390 l 522 1389 q 535 1392 532 1389 q 542 1408 539 1396 q 503 1429 542 1429 q 453 1413 476 1429 q 422 1371 431 1397 q 401 1344 415 1358 l 396 1353 q 356 1400 382 1385 q 299 1426 329 1415 q 272 1433 286 1431 q 240 1424 256 1433 q 181 1381 201 1410 q 140 1288 140 1324 q 157 1263 140 1268 z "},"":{"ha":743,"x_min":25,"x_max":675,"o":"m 401 -36 q 453 -28 426 -36 q 632 164 597 15 q 675 468 675 317 q 600 975 675 796 q 532 1086 576 1035 q 346 1175 454 1175 q 201 1125 268 1175 q 96 986 133 1075 q 25 588 25 818 l 26 533 q 122 138 26 347 q 340 -28 192 3 q 401 -36 371 -36 m 407 101 q 310 150 351 101 q 257 276 267 207 q 217 581 217 446 q 229 765 218 678 q 283 939 240 851 q 396 1033 317 1017 q 453 990 435 1017 q 483 925 472 963 q 540 690 532 814 q 553 521 553 606 q 543 351 551 436 q 510 186 535 267 l 510 181 q 484 131 496 149 q 449 107 472 114 l 407 101 m 297 1236 q 340 1253 324 1236 q 357 1294 357 1269 q 341 1336 357 1319 q 299 1353 325 1353 q 256 1335 272 1353 q 240 1293 240 1318 q 256 1253 240 1269 q 297 1236 272 1236 m 444 1238 q 485 1255 468 1238 q 501 1299 501 1272 q 480 1336 497 1322 q 440 1350 463 1350 q 388 1288 392 1350 q 406 1252 388 1267 q 444 1238 424 1238 z "},"":{"ha":643,"x_min":42,"x_max":594,"o":"m 121 410 l 317 414 l 425 414 q 472 417 449 417 l 483 417 q 594 483 594 417 q 533 540 588 525 q 99 532 307 540 q 42 469 44 521 q 86 414 42 431 q 121 410 107 410 m 304 656 l 339 661 q 363 667 353 663 q 388 750 388 678 q 369 813 385 796 q 314 829 353 829 q 249 808 268 829 q 231 738 231 786 q 304 656 238 656 m 307 135 q 381 204 381 135 l 381 210 q 363 275 381 257 q 301 293 346 293 q 242 274 258 293 q 225 208 226 254 q 307 135 225 136 z "},"":{"ha":743,"x_min":25,"x_max":703,"o":"m 401 -36 q 453 -28 426 -36 q 632 164 597 15 q 675 468 675 317 q 600 975 675 796 q 532 1086 576 1035 q 346 1175 454 1175 q 201 1125 268 1175 q 96 986 133 1075 q 25 588 25 818 l 26 533 q 122 138 26 347 q 340 -28 192 3 q 401 -36 371 -36 m 407 101 q 310 150 351 101 q 257 276 267 207 q 217 581 217 446 q 229 765 218 678 q 283 939 240 851 q 396 1033 317 1017 q 453 990 435 1017 q 483 925 472 963 q 540 690 532 814 q 553 521 553 606 q 543 351 551 436 q 510 186 535 267 l 510 181 q 484 131 496 149 q 449 107 472 114 l 407 101 m 140 -12 q 240 49 197 -12 q 501 599 383 318 q 697 1019 594 813 l 703 1042 q 687 1069 703 1056 q 650 1092 671 1082 q 604 1103 629 1103 l 553 1103 q 492 1058 510 1097 l 61 53 l 57 35 q 65 18 57 25 q 140 -12 101 -12 z "},"":{"ha":700,"x_min":46,"x_max":633,"o":"m 344 -21 q 423 -9 400 -21 q 479 39 446 3 l 492 53 q 544 131 532 85 q 622 501 613 310 q 633 713 633 606 q 626 885 633 799 l 619 964 q 604 1085 617 1025 q 540 1146 592 1146 q 482 1085 482 1140 q 510 693 510 842 q 479 357 507 506 q 436 179 467 268 q 360 115 415 132 q 340 126 349 115 q 292 196 313 158 q 263 315 269 256 q 257 436 257 374 l 256 499 q 261 631 256 565 q 274 761 267 697 q 288 889 282 825 q 306 1076 306 978 q 271 1144 306 1117 q 201 1171 236 1171 q 79 1054 93 1158 q 49 725 49 889 l 46 643 q 65 397 46 553 q 144 110 79 246 q 344 -21 206 -21 m 456 1228 q 479 1238 468 1228 q 490 1263 490 1249 l 482 1290 l 431 1381 q 356 1415 408 1415 q 319 1398 335 1415 q 303 1357 303 1381 q 320 1313 310 1326 q 351 1290 331 1300 q 404 1257 379 1275 l 425 1242 q 456 1228 439 1228 z "},"":{"ha":700,"x_min":46,"x_max":633,"o":"m 344 -21 q 423 -9 400 -21 q 479 39 446 3 l 492 53 q 544 131 532 85 q 622 501 613 310 q 633 713 633 606 q 626 885 633 799 l 619 964 q 604 1085 617 1025 q 540 1146 592 1146 q 482 1085 482 1140 q 510 693 510 842 q 479 357 507 506 q 436 179 467 268 q 360 115 415 132 q 340 126 349 115 q 292 196 313 158 q 263 315 269 256 q 257 436 257 374 l 256 499 q 261 631 256 565 q 274 761 267 697 q 288 889 282 825 q 306 1076 306 978 q 271 1144 306 1117 q 201 1171 236 1171 q 79 1054 93 1158 q 49 725 49 889 l 46 643 q 65 397 46 553 q 144 110 79 246 q 344 -21 206 -21 m 407 1211 q 429 1219 418 1211 q 554 1351 554 1317 q 534 1394 546 1382 q 494 1411 522 1407 q 469 1403 481 1408 q 451 1388 457 1399 q 439 1369 444 1378 q 379 1244 397 1315 q 394 1215 379 1231 l 407 1211 z "},"":{"ha":700,"x_min":46,"x_max":633,"o":"m 344 -21 q 423 -9 400 -21 q 479 39 446 3 l 492 53 q 544 131 532 85 q 622 501 613 310 q 633 713 633 606 q 626 885 633 799 l 619 964 q 604 1085 617 1025 q 540 1146 592 1146 q 482 1085 482 1140 q 510 693 510 842 q 479 357 507 506 q 436 179 467 268 q 360 115 415 132 q 340 126 349 115 q 292 196 313 158 q 263 315 269 256 q 257 436 257 374 l 256 499 q 261 631 256 565 q 274 761 267 697 q 288 889 282 825 q 306 1076 306 978 q 271 1144 306 1117 q 201 1171 236 1171 q 79 1054 93 1158 q 49 725 49 889 l 46 643 q 65 397 46 553 q 144 110 79 246 q 344 -21 206 -21 m 499 1236 q 531 1251 521 1243 q 542 1283 542 1260 q 536 1306 542 1294 l 514 1340 q 469 1409 493 1378 q 418 1440 444 1440 q 367 1414 379 1440 l 296 1301 l 289 1276 q 298 1250 289 1257 q 325 1238 307 1243 q 386 1296 353 1238 q 408 1321 401 1321 q 417 1311 413 1317 q 427 1299 422 1306 q 436 1279 432 1293 l 444 1271 q 469 1247 456 1258 q 499 1236 482 1236 m 457 1379 q 480 1385 475 1379 q 488 1406 485 1392 l 483 1418 q 445 1455 464 1442 q 397 1474 426 1468 q 357 1431 360 1474 q 392 1388 357 1399 l 457 1379 z "},"":{"ha":700,"x_min":46,"x_max":633,"o":"m 344 -21 q 423 -9 400 -21 q 479 39 446 3 l 492 53 q 544 131 532 85 q 622 501 613 310 q 633 713 633 606 q 626 885 633 799 l 619 964 q 604 1085 617 1025 q 540 1146 592 1146 q 482 1085 482 1140 q 510 693 510 842 q 479 357 507 506 q 436 179 467 268 q 360 115 415 132 q 340 126 349 115 q 292 196 313 158 q 263 315 269 256 q 257 436 257 374 l 256 499 q 261 631 256 565 q 274 761 267 697 q 288 889 282 825 q 306 1076 306 978 q 271 1144 306 1117 q 201 1171 236 1171 q 79 1054 93 1158 q 49 725 49 889 l 46 643 q 65 397 46 553 q 144 110 79 246 q 344 -21 206 -21 m 347 1222 q 390 1239 374 1222 q 407 1281 407 1256 q 391 1322 407 1306 q 349 1339 375 1339 q 306 1322 322 1339 q 290 1279 290 1304 q 306 1239 290 1256 q 347 1222 322 1222 m 494 1224 q 535 1241 518 1224 q 551 1285 551 1258 q 530 1322 547 1308 q 490 1336 513 1336 q 438 1274 442 1336 q 456 1238 438 1253 q 494 1224 474 1224 z "},"":{"ha":633,"x_min":46,"x_max":588,"o":"m 313 -1 q 375 19 346 -1 q 431 185 431 60 l 414 574 q 428 635 414 606 l 450 682 l 542 931 q 571 1001 560 971 q 588 1071 582 1032 q 569 1112 588 1096 q 529 1128 551 1128 q 481 1104 504 1128 l 458 1074 q 365 854 413 975 l 338 782 q 267 999 303 892 q 128 1117 232 1106 q 70 1094 94 1117 q 46 1035 46 1071 q 76 939 51 983 l 219 617 q 238 574 238 592 q 228 386 228 478 l 222 183 l 224 99 q 285 3 228 15 l 313 -1 m 321 1183 q 343 1192 332 1183 q 468 1324 468 1289 q 448 1367 460 1354 q 408 1383 436 1379 q 383 1376 394 1381 q 365 1360 371 1371 q 353 1342 358 1350 q 293 1217 311 1288 q 308 1188 293 1203 l 321 1183 z "},"":{"ha":633,"x_min":46,"x_max":588,"o":"m 313 -1 q 375 19 346 -1 q 431 185 431 60 l 414 574 q 428 635 414 606 l 450 682 l 542 931 q 571 1001 560 971 q 588 1071 582 1032 q 569 1112 588 1096 q 529 1128 551 1128 q 481 1104 504 1128 l 458 1074 q 365 854 413 975 l 338 782 q 267 999 303 892 q 128 1117 232 1106 q 70 1094 94 1117 q 46 1035 46 1071 q 76 939 51 983 l 219 617 q 238 574 238 592 q 228 386 228 478 l 222 183 l 224 99 q 285 3 228 15 l 313 -1 m 278 1232 q 321 1249 304 1232 q 338 1290 338 1265 q 322 1332 338 1315 q 279 1349 306 1349 q 237 1331 253 1349 q 221 1289 221 1314 q 237 1249 221 1265 q 278 1232 253 1232 m 425 1233 q 465 1251 449 1233 q 482 1294 482 1268 q 460 1332 478 1318 q 421 1346 443 1346 q 368 1283 372 1346 q 386 1248 368 1263 q 425 1233 404 1233 z "},"":{"ha":322,"x_min":51,"x_max":233,"o":"m 168 28 q 210 49 192 31 q 229 103 229 67 l 229 554 l 233 688 l 233 947 q 215 1021 233 986 q 200 1051 210 1038 q 168 1064 190 1064 q 122 1059 144 1064 q 85 1029 99 1054 q 68 964 68 997 q 64 886 64 925 q 51 546 51 715 l 58 207 q 68 89 58 147 q 100 44 75 61 q 157 28 125 28 l 168 28 z "},"":{"ha":308,"x_min":28,"x_max":281,"o":"m 238 1004 q 270 1019 260 1011 q 281 1051 281 1028 q 275 1074 281 1063 l 253 1108 q 208 1177 232 1146 q 157 1208 183 1208 q 106 1182 118 1208 l 35 1069 l 28 1044 q 37 1018 28 1025 q 64 1006 46 1011 q 125 1064 92 1006 q 147 1089 140 1089 q 156 1079 151 1085 q 166 1067 161 1074 q 175 1047 171 1061 l 183 1039 q 208 1015 194 1026 q 238 1004 221 1004 z "},"":{"ha":315,"x_min":42,"x_max":288,"o":"m 169 1010 q 218 1032 196 1010 q 274 1106 253 1063 q 284 1124 282 1114 q 288 1153 286 1135 q 250 1193 288 1189 q 197 1169 221 1186 q 186 1160 192 1165 q 176 1147 181 1156 q 153 1128 164 1128 q 125 1149 142 1128 q 82 1176 104 1176 q 53 1163 64 1176 q 42 1132 42 1149 q 53 1106 42 1118 l 126 1028 q 169 1010 143 1010 z "},"":{"ha":313,"x_min":28,"x_max":285,"o":"m 149 926 q 256 979 213 926 q 285 1050 285 1014 q 244 1136 285 1106 q 163 1167 204 1167 q 101 1154 133 1167 q 28 1050 28 1114 q 63 966 28 1006 q 149 926 97 926 m 144 1008 q 115 1033 122 1008 q 121 1051 115 1042 q 134 1069 126 1061 q 146 1076 142 1076 q 156 1069 150 1076 q 167 1051 163 1061 q 172 1033 172 1042 q 144 1008 169 1008 z "},"":{"ha":481,"x_min":57,"x_max":453,"o":"m 299 919 q 383 943 342 919 q 444 1015 425 967 l 453 1058 q 431 1100 453 1089 q 363 1111 408 1111 l 349 1106 q 326 1093 335 1100 q 314 1068 318 1086 q 306 1015 314 1042 q 297 1029 299 1024 q 293 1038 294 1035 q 186 1106 253 1106 l 158 1103 q 57 975 67 1085 q 66 940 57 947 q 101 929 75 933 q 144 956 126 929 l 171 985 q 299 919 231 919 z "},"":{"ha":644,"x_min":43,"x_max":596,"o":"m 317 421 l 317 425 l 426 425 q 474 428 450 428 l 485 428 q 596 494 596 428 q 535 551 589 536 q 100 543 307 551 q 43 481 46 532 q 86 425 43 442 q 121 421 108 421 l 317 421 z "},"":{"ha":921,"x_min":72,"x_max":893,"o":"m 172 400 q 433 410 297 408 q 811 421 767 417 q 893 482 893 428 q 876 527 890 510 q 825 544 861 544 q 576 538 692 538 l 501 538 q 242 531 388 538 q 199 529 221 529 q 117 518 156 529 q 72 461 72 506 q 117 404 72 422 q 172 400 147 400 z "},"":{"ha":193,"x_min":31,"x_max":165,"o":"m 72 1010 l 82 1011 q 135 1050 122 1011 q 165 1185 165 1125 q 157 1213 165 1201 q 133 1228 149 1225 q 99 1236 117 1232 q 50 1216 69 1236 q 31 1164 31 1196 l 31 1058 q 72 1010 31 1013 z "},"":{"ha":193,"x_min":29,"x_max":164,"o":"m 121 1010 q 164 1058 164 1010 l 164 1164 q 94 1236 164 1229 q 61 1228 76 1232 q 38 1213 46 1225 q 29 1185 29 1201 q 60 1050 29 1125 q 111 1011 72 1011 l 121 1010 z "},"":{"ha":193,"x_min":29,"x_max":164,"o":"m 121 -101 q 164 -53 164 -101 l 164 53 q 94 125 164 118 q 61 117 76 121 q 38 102 46 114 q 29 74 29 90 q 60 -61 29 14 q 111 -100 72 -100 l 121 -101 z "},"":{"ha":351,"x_min":53,"x_max":317,"o":"m 249 1003 q 274 1011 263 1003 q 288 1033 285 1019 l 301 1083 q 310 1121 307 1104 l 317 1172 q 253 1225 317 1221 q 206 1212 221 1224 q 192 1169 192 1200 q 200 1038 194 1094 q 240 1003 207 1003 l 249 1003 m 131 1003 q 158 1018 150 1007 q 169 1051 167 1029 q 172 1105 172 1088 q 176 1169 172 1122 q 158 1206 176 1193 q 117 1219 139 1219 q 65 1204 92 1219 q 53 1178 53 1197 q 74 1043 60 1107 q 131 1003 92 1003 z "},"":{"ha":351,"x_min":33,"x_max":299,"o":"m 111 1003 q 150 1038 143 1003 q 160 1169 156 1093 q 145 1212 160 1200 q 97 1225 131 1224 q 33 1172 39 1225 l 40 1121 q 49 1083 43 1104 l 63 1033 q 78 1011 67 1019 q 103 1003 89 1003 l 111 1003 m 219 1003 q 276 1043 258 1003 q 299 1178 290 1107 q 285 1204 299 1197 q 233 1219 260 1219 q 192 1206 211 1219 q 174 1169 174 1193 q 179 1105 179 1122 q 181 1051 179 1088 q 192 1018 183 1029 q 219 1003 200 1007 z "},"":{"ha":351,"x_min":33,"x_max":299,"o":"m 111 -115 q 150 -81 143 -115 q 160 51 156 -25 q 145 94 160 82 q 97 107 131 106 q 33 54 39 107 l 40 3 q 49 -35 43 -14 l 63 -85 q 78 -107 67 -99 q 103 -115 89 -115 l 111 -115 m 219 -115 q 276 -75 258 -115 q 299 60 290 -11 q 285 86 299 79 q 233 101 260 101 q 192 88 211 101 q 174 51 174 75 q 179 -13 179 4 q 181 -67 179 -31 q 192 -100 183 -89 q 219 -115 200 -111 z "},"":{"ha":435,"x_min":46,"x_max":407,"o":"m 213 -12 q 262 5 250 -7 q 274 53 274 17 l 282 536 l 282 749 l 360 754 q 377 760 367 757 q 397 768 388 763 q 407 789 407 774 q 361 822 407 818 l 360 824 l 282 831 l 282 993 q 278 1063 282 1026 q 225 1103 267 1103 q 174 1094 190 1103 q 143 942 143 1081 l 142 832 l 93 832 l 58 819 q 46 797 46 808 q 65 771 46 783 q 107 758 85 758 l 142 760 l 140 650 q 140 521 140 568 q 138 419 139 474 q 135 258 136 365 l 129 40 q 151 -4 129 8 q 161 -6 157 -4 q 213 -12 185 -12 z "},"":{"ha":513,"x_min":28,"x_max":472,"o":"m 100 -39 q 150 -17 136 -39 q 167 53 164 4 q 106 104 167 104 q 49 92 69 104 q 28 53 28 79 q 43 -20 31 -1 q 89 -39 56 -39 l 100 -39 m 257 -44 l 275 -43 q 309 -27 303 -43 q 315 6 315 -11 q 319 35 315 24 l 319 47 q 263 100 319 100 q 189 39 190 100 q 257 -44 189 -42 m 408 -49 l 419 -47 q 462 -38 451 -47 q 472 0 472 -29 l 472 61 q 458 88 472 75 q 417 97 439 97 q 353 60 360 97 q 350 26 350 43 q 364 -25 350 -1 q 408 -49 378 -49 z "},"":{"ha":647,"x_min":28,"x_max":560,"o":"m 224 -15 q 296 7 261 -15 q 311 22 306 11 q 317 46 317 33 l 313 90 l 311 188 l 313 279 l 376 281 q 419 290 397 281 q 440 317 440 300 q 417 342 440 331 q 368 354 394 354 l 314 354 q 331 635 318 494 q 336 652 331 650 q 435 660 342 654 q 462 671 451 664 q 475 697 472 678 q 468 718 475 708 l 447 739 q 385 757 415 757 l 365 756 q 342 767 342 756 l 365 951 q 369 985 365 978 q 386 993 374 993 q 424 990 411 992 q 443 988 436 989 q 456 986 450 988 q 476 983 463 985 q 513 978 489 981 q 544 985 533 978 q 560 1014 556 992 q 554 1032 560 1024 q 478 1082 522 1074 l 444 1086 q 238 1104 342 1099 q 158 1053 181 1104 q 135 939 135 1001 q 108 464 108 724 l 110 353 l 93 353 q 36 335 68 353 q 28 315 28 329 q 36 299 28 303 q 113 276 72 276 q 114 256 114 267 q 139 46 119 151 q 208 -14 147 -10 l 224 -15 z "},"":{"ha":688,"x_min":28,"x_max":660,"o":"m 376 -64 q 572 -56 474 -64 q 660 -21 660 -56 q 560 14 660 14 q 303 10 429 14 q 285 17 285 10 l 296 39 q 314 90 311 69 l 351 90 l 371 88 l 400 94 q 428 104 410 94 q 439 125 439 110 q 422 150 435 143 q 392 160 408 157 l 321 163 q 324 221 324 192 q 347 250 324 250 l 378 247 l 424 253 l 428 254 q 452 263 440 257 q 464 283 464 268 q 453 310 464 304 q 350 324 422 324 q 328 344 328 324 q 364 824 329 581 q 442 1019 383 947 q 468 1039 458 1039 q 493 1017 478 1039 q 556 971 524 971 l 571 972 q 605 976 590 972 q 629 997 619 981 l 633 1018 q 625 1045 633 1033 q 607 1068 617 1057 q 446 1132 536 1132 l 399 1128 q 272 1069 324 1114 q 189 959 221 1025 q 146 823 157 893 q 132 681 135 753 l 129 525 l 132 371 q 97 328 132 332 q 34 307 40 311 q 28 293 28 303 q 33 276 28 283 q 111 258 47 258 q 133 240 133 258 l 132 232 q 128 158 128 196 l 96 156 l 92 154 q 65 145 78 151 q 51 121 51 139 q 65 99 51 106 q 92 92 78 93 q 121 88 106 90 q 97 -4 113 40 l 93 -22 q 119 -51 93 -43 q 181 -64 147 -64 l 376 -64 z "},"":{"ha":714,"x_min":33,"x_max":671,"o":"m 413 43 q 551 74 497 43 q 633 158 604 106 q 668 274 661 210 l 671 283 q 649 308 671 299 q 607 317 626 317 q 556 301 579 317 q 525 257 532 285 q 494 178 513 218 q 468 165 488 165 q 429 196 442 171 q 386 349 392 268 l 385 357 q 403 369 385 369 q 478 388 449 369 q 486 404 486 392 q 460 435 486 428 q 399 444 425 444 q 377 449 382 444 q 372 465 372 453 l 372 600 q 394 626 372 626 q 455 635 425 626 q 485 663 485 644 q 468 683 485 675 q 446 693 460 692 l 433 696 l 403 696 q 388 701 392 696 q 383 717 385 706 l 382 722 q 388 751 382 738 l 392 765 q 415 856 400 811 q 464 936 431 900 q 481 951 475 951 q 533 744 531 850 q 547 710 533 725 q 596 697 571 697 q 637 708 617 697 q 663 738 657 719 q 668 779 668 756 q 621 971 661 878 q 456 1068 571 1068 q 352 1041 401 1068 q 272 963 303 1014 q 190 710 206 846 q 171 688 190 688 l 164 688 q 72 675 118 688 q 42 644 42 664 q 51 627 42 632 q 69 619 60 622 q 121 611 71 618 l 156 614 q 178 596 176 614 l 172 465 q 166 444 172 449 q 146 439 160 439 q 60 431 100 439 q 33 400 33 419 q 122 364 33 364 l 146 365 q 176 343 176 365 l 176 339 q 194 235 176 288 q 281 95 222 143 q 413 43 339 47 z "},"":{"ha":1389,"x_min":0,"x_max":0,"o":""}}}
